{"glyphs":{"0":{"ha":922,"x_min":0,"x_max":0,"o":"m 461 924 b 93 447 229 924 93 711 b 454 -15 93 199 215 -15 b 831 457 700 -15 831 213 b 461 924 831 707 694 924 z m 460 58 b 201 457 308 58 201 210 b 456 850 201 682 290 850 b 724 456 621 850 724 679 b 460 58 724 239 626 58 z "},"1":{"ha":507,"x_min":0,"x_max":0,"o":"m 63 751 l 67 746 l 215 783 b 221 551 221 724 221 704 l 221 325 b 215 114 221 197 219 161 b 182 46 213 76 196 58 b 92 25 167 32 121 25 l 88 19 l 85 0 l 88 -6 b 229 0 114 -4 203 0 l 308 0 b 450 -6 335 0 424 -4 l 453 0 l 450 18 l 443 25 b 357 46 415 25 374 33 b 324 114 343 58 326 75 b 318 358 318 178 318 201 l 318 554 b 322 801 318 711 318 742 b 328 908 324 824 324 879 l 297 921 l 288 921 b 67 778 218 856 146 817 l 63 769 z "},"2":{"ha":765,"x_min":0,"x_max":0,"o":"m 108 658 l 156 658 l 161 664 b 372 850 168 788 251 850 b 553 701 474 850 553 793 b 478 518 553 635 521 578 b 72 39 371 369 153 143 l 72 7 l 86 -8 b 229 0 133 -4 189 0 l 367 0 b 638 -8 415 0 613 -7 l 650 6 l 675 185 l 638 185 l 631 176 b 356 67 604 71 579 67 l 247 67 l 244 71 b 546 449 244 111 443 308 b 654 685 607 531 654 599 b 381 924 654 831 575 924 b 96 771 229 924 140 849 l 92 758 z "},"3":{"ha":775,"x_min":0,"x_max":0,"o":"m 149 204 l 144 210 l 99 210 l 83 124 l 85 111 b 350 -15 144 25 232 -15 b 686 263 551 -15 686 99 b 504 499 686 381 618 474 b 639 710 563 522 639 593 b 385 924 639 854 511 924 b 110 771 238 924 149 843 l 107 758 l 124 658 l 169 658 l 175 664 b 360 850 189 778 228 850 b 533 700 494 850 533 776 b 365 513 533 604 472 513 l 350 461 l 389 461 b 581 257 519 461 581 357 b 364 58 581 169 532 58 b 149 204 228 58 151 131 z "},"4":{"ha":711,"x_min":0,"x_max":0,"o":"m 60 303 l 419 303 b 414 114 419 218 418 160 b 381 46 411 76 394 58 b 282 25 365 32 311 25 l 276 19 l 271 0 l 272 -6 b 429 0 299 -4 403 0 l 507 0 b 647 -6 533 0 621 -4 l 650 0 l 647 18 l 642 25 b 556 46 614 25 571 33 b 521 114 540 58 524 75 b 515 303 515 168 515 203 l 586 303 l 596 310 l 611 367 l 606 375 l 515 375 l 515 554 b 519 801 515 711 515 742 b 525 908 521 824 521 879 l 508 924 l 497 924 l 407 911 b 32 340 357 847 136 524 l 47 310 z m 415 807 b 419 551 418 739 419 628 l 419 375 l 136 375 b 415 807 206 519 353 735 z "},"5":{"ha":758,"x_min":0,"x_max":0,"o":"m 579 279 b 354 58 579 164 522 58 b 153 204 225 58 156 121 l 149 210 l 99 210 l 83 111 l 85 97 b 340 -15 135 29 211 -15 b 681 290 540 -15 681 93 b 388 551 681 489 540 551 b 215 524 324 551 263 542 l 243 835 b 251 842 243 840 246 842 l 335 842 b 569 756 540 842 554 838 l 578 749 l 603 749 l 611 758 l 590 908 l 578 919 b 297 908 450 910 347 908 l 172 908 l 164 897 l 119 454 l 167 419 b 375 469 231 451 301 469 b 579 279 474 469 579 435 z "},"6":{"ha":776,"x_min":0,"x_max":0,"o":"m 201 468 b 199 508 199 490 199 508 b 433 850 199 683 256 850 b 599 771 490 850 561 833 l 624 771 l 644 858 b 424 924 589 911 482 924 b 103 421 158 924 103 649 b 403 -15 103 157 179 -15 b 697 278 615 -15 697 140 b 404 557 697 378 654 557 b 206 467 347 557 265 547 z m 411 481 b 603 281 571 481 603 365 b 401 58 603 151 528 58 b 213 282 250 58 213 194 b 411 481 213 401 279 481 z "},"7":{"ha":713,"x_min":0,"x_max":0,"o":"m 271 10 b 396 304 281 42 308 122 b 700 869 490 501 664 824 l 707 904 l 700 908 l 510 908 b 86 919 461 908 321 908 l 75 908 l 54 758 l 61 749 l 86 749 l 94 756 b 354 842 110 838 149 842 l 543 842 l 550 836 b 124 6 550 769 204 147 l 133 -8 b 264 0 178 -3 228 0 z "},"8":{"ha":794,"x_min":0,"x_max":0,"o":"m 393 924 b 138 696 242 924 138 842 b 258 510 138 585 197 535 b 90 258 144 469 90 372 b 396 -15 90 124 165 -15 b 704 258 628 -15 704 125 b 536 510 704 361 658 468 b 657 694 593 532 657 582 b 393 924 657 844 542 924 z m 394 465 b 599 249 543 465 599 347 b 397 58 599 158 549 58 b 196 251 246 58 196 172 b 394 465 196 343 246 465 z m 551 700 b 397 533 551 608 488 533 b 243 703 304 533 243 592 b 394 850 243 796 288 850 b 551 700 496 850 551 804 z "},"9":{"ha":775,"x_min":0,"x_max":0,"o":"m 575 440 b 578 400 578 418 578 400 b 343 58 578 225 521 58 b 178 138 286 58 214 75 l 153 138 l 132 50 b 351 -15 186 -3 293 -15 b 674 488 617 -15 674 260 b 374 924 674 751 597 924 b 79 631 160 924 79 768 b 372 351 79 531 122 351 b 571 442 428 351 510 361 z m 365 428 b 174 628 206 428 174 543 b 374 850 174 757 249 850 b 563 626 526 850 563 714 b 365 428 563 507 497 428 z "},"A":{"ha":938,"x_min":0,"x_max":0,"o":"m 501 924 l 419 882 b 297 575 404 840 347 704 b 117 121 144 183 131 149 b -17 28 74 29 31 28 l -24 22 l -26 -3 l -25 -8 b 113 0 1 -7 86 0 l 139 0 b 288 -8 165 0 261 -7 l 290 -3 l 286 22 l 279 28 b 194 86 226 28 194 33 b 269 321 194 129 228 206 l 293 388 l 604 388 l 628 321 b 703 86 669 206 703 129 b 618 28 703 33 671 28 l 613 22 l 608 -3 l 611 -8 b 768 0 638 -7 742 0 l 814 0 b 951 -8 840 0 925 -7 l 954 -3 l 950 22 l 943 28 b 810 121 896 28 851 29 b 744 293 797 149 783 183 l 517 924 z m 450 804 l 582 447 l 317 447 z "},"Æ":{"ha":1185,"x_min":0,"x_max":0,"o":"m 492 722 b 129 121 363 500 147 147 b 71 54 110 92 89 67 b -39 28 46 36 -6 31 l -46 22 l -49 -3 l -49 -8 b 90 0 -22 -7 64 0 l 117 0 b 288 -8 143 0 261 -7 l 292 -3 l 288 22 l 281 28 b 201 68 236 28 201 32 b 407 456 201 103 228 156 l 628 456 b 624 121 628 183 626 149 b 590 42 619 69 604 54 b 515 28 574 29 544 28 l 510 22 l 506 -3 l 508 -8 b 664 0 535 -7 638 0 l 904 0 b 1104 -6 953 0 1088 -6 l 1115 8 l 1140 185 l 1104 185 l 1100 179 b 839 67 1074 78 1063 67 l 761 67 b 732 93 742 67 733 74 b 725 456 725 164 725 189 b 935 436 843 454 913 460 b 963 364 949 419 963 393 l 967 360 l 993 357 l 997 360 b 992 483 994 404 992 439 b 997 606 992 524 994 565 l 993 608 l 968 606 l 963 600 b 935 532 963 572 947 547 b 725 508 913 506 838 511 b 733 842 725 624 725 733 l 826 842 b 1060 754 1049 842 1054 840 l 1065 749 l 1100 749 l 1106 900 l 1100 914 b 865 908 1082 914 914 908 l 676 908 b 479 917 638 908 504 914 l 476 911 l 481 886 l 486 881 b 546 836 540 874 546 861 b 492 722 546 808 519 769 z m 626 824 b 628 508 628 779 628 699 l 440 508 z "},"Á":{"ha":938,"x_min":0,"x_max":0,"o":"m 329 1039 l 610 1146 b 614 1172 614 1156 614 1164 b 565 1219 614 1199 597 1218 l 315 1081 l 311 1071 l 319 1043 z m 501 924 l 419 882 b 297 575 404 840 347 704 b 117 121 144 183 131 149 b -17 28 74 29 31 28 l -24 22 l -26 -3 l -25 -8 b 113 0 1 -7 86 0 l 139 0 b 288 -8 165 0 261 -7 l 290 -3 l 286 22 l 279 28 b 194 86 226 28 194 33 b 269 321 194 129 228 206 l 293 388 l 604 388 l 628 321 b 703 86 669 206 703 129 b 618 28 703 33 671 28 l 613 22 l 608 -3 l 611 -8 b 768 0 638 -7 742 0 l 814 0 b 951 -8 840 0 925 -7 l 954 -3 l 950 22 l 943 28 b 810 121 896 28 851 29 b 744 293 797 149 783 183 l 517 924 z m 450 804 l 582 447 l 317 447 z "},"Â":{"ha":938,"x_min":0,"x_max":0,"o":"m 461 1211 l 308 1074 l 304 1064 l 313 1036 l 322 1032 l 467 1118 l 611 1032 l 621 1036 l 629 1064 l 625 1074 l 472 1211 z m 501 924 l 419 882 b 297 575 404 840 347 704 b 117 121 144 183 131 149 b -17 28 74 29 31 28 l -24 22 l -26 -3 l -25 -8 b 113 0 1 -7 86 0 l 139 0 b 288 -8 165 0 261 -7 l 290 -3 l 286 22 l 279 28 b 194 86 226 28 194 33 b 269 321 194 129 228 206 l 293 388 l 604 388 l 628 321 b 703 86 669 206 703 129 b 618 28 703 33 671 28 l 613 22 l 608 -3 l 611 -8 b 768 0 638 -7 742 0 l 814 0 b 951 -8 840 0 925 -7 l 954 -3 l 950 22 l 943 28 b 810 121 896 28 851 29 b 744 293 797 149 783 183 l 517 924 z m 450 804 l 582 447 l 317 447 z "},"Ä":{"ha":938,"x_min":0,"x_max":0,"o":"m 311 1153 b 368 1092 311 1118 336 1092 b 426 1153 399 1092 426 1118 b 368 1215 426 1186 399 1215 b 311 1153 336 1215 311 1186 z m 501 1153 b 558 1092 501 1118 526 1092 b 615 1153 588 1092 615 1118 b 558 1215 615 1186 588 1215 b 501 1153 526 1215 501 1186 z m 501 924 l 419 882 b 297 575 404 840 347 704 b 117 121 144 183 131 149 b -17 28 74 29 31 28 l -24 22 l -26 -3 l -25 -8 b 113 0 1 -7 86 0 l 139 0 b 288 -8 165 0 261 -7 l 290 -3 l 286 22 l 279 28 b 194 86 226 28 194 33 b 269 321 194 129 228 206 l 293 388 l 604 388 l 628 321 b 703 86 669 206 703 129 b 618 28 703 33 671 28 l 613 22 l 608 -3 l 611 -8 b 768 0 638 -7 742 0 l 814 0 b 951 -8 840 0 925 -7 l 954 -3 l 950 22 l 943 28 b 810 121 896 28 851 29 b 744 293 797 149 783 183 l 517 924 z m 450 804 l 582 447 l 317 447 z "},"À":{"ha":938,"x_min":0,"x_max":0,"o":"m 607 1043 l 614 1071 l 611 1081 l 360 1219 b 311 1172 328 1218 311 1199 b 317 1146 311 1164 313 1156 l 596 1039 z m 501 924 l 419 882 b 297 575 404 840 347 704 b 117 121 144 183 131 149 b -17 28 74 29 31 28 l -24 22 l -26 -3 l -25 -8 b 113 0 1 -7 86 0 l 139 0 b 288 -8 165 0 261 -7 l 290 -3 l 286 22 l 279 28 b 194 86 226 28 194 33 b 269 321 194 129 228 206 l 293 388 l 604 388 l 628 321 b 703 86 669 206 703 129 b 618 28 703 33 671 28 l 613 22 l 608 -3 l 611 -8 b 768 0 638 -7 742 0 l 814 0 b 951 -8 840 0 925 -7 l 954 -3 l 950 22 l 943 28 b 810 121 896 28 851 29 b 744 293 797 149 783 183 l 517 924 z m 450 804 l 582 447 l 317 447 z "},"Å":{"ha":938,"x_min":0,"x_max":0,"o":"m 463 1225 b 349 1124 392 1225 349 1175 b 464 1024 349 1076 386 1024 b 578 1121 538 1024 578 1072 b 463 1225 578 1172 535 1225 z m 464 1056 b 400 1125 428 1056 400 1090 b 461 1190 400 1157 422 1190 b 525 1121 500 1190 525 1154 b 464 1056 525 1089 501 1056 z m 501 924 l 419 882 b 297 575 404 840 347 704 b 117 121 144 183 131 149 b -17 28 74 29 31 28 l -24 22 l -26 -3 l -25 -8 b 113 0 1 -7 86 0 l 139 0 b 288 -8 165 0 261 -7 l 290 -3 l 286 22 l 279 28 b 194 86 226 28 194 33 b 269 321 194 129 228 206 l 293 388 l 604 388 l 628 321 b 703 86 669 206 703 129 b 618 28 703 33 671 28 l 613 22 l 608 -3 l 611 -8 b 768 0 638 -7 742 0 l 814 0 b 951 -8 840 0 925 -7 l 954 -3 l 950 22 l 943 28 b 810 121 896 28 851 29 b 744 293 797 149 783 183 l 517 924 z m 450 804 l 582 447 l 317 447 z "},"Ã":{"ha":938,"x_min":0,"x_max":0,"o":"m 704 1204 l 688 1215 b 597 1179 664 1182 628 1179 b 349 1190 517 1179 396 1190 b 222 1085 269 1190 222 1113 l 240 1075 b 318 1108 258 1097 271 1108 b 582 1097 375 1108 543 1097 b 704 1204 669 1097 704 1192 z m 501 924 l 419 882 b 297 575 404 840 347 704 b 117 121 144 183 131 149 b -17 28 74 29 31 28 l -24 22 l -26 -3 l -25 -8 b 113 0 1 -7 86 0 l 139 0 b 288 -8 165 0 261 -7 l 290 -3 l 286 22 l 279 28 b 194 86 226 28 194 33 b 269 321 194 129 228 206 l 293 388 l 604 388 l 628 321 b 703 86 669 206 703 129 b 618 28 703 33 671 28 l 613 22 l 608 -3 l 611 -8 b 768 0 638 -7 742 0 l 814 0 b 951 -8 840 0 925 -7 l 954 -3 l 950 22 l 943 28 b 810 121 896 28 851 29 b 744 293 797 149 783 183 l 517 924 z m 450 804 l 582 447 l 317 447 z "},"B":{"ha":815,"x_min":0,"x_max":0,"o":"m 403 0 b 743 261 603 0 743 78 b 532 499 743 397 667 475 b 658 700 597 531 658 589 b 378 910 658 826 578 910 b 240 908 353 910 281 908 l 190 908 b 63 917 151 908 89 915 l 60 911 l 64 886 l 71 881 b 144 867 117 881 128 876 b 179 788 158 856 176 838 b 182 654 182 742 182 690 l 182 307 b 179 121 182 197 181 149 b 144 40 174 74 160 51 b 71 28 128 29 93 28 l 64 22 l 60 -3 l 63 -8 b 218 0 89 -7 192 0 z m 413 461 b 647 258 544 461 647 392 b 418 67 647 103 506 67 l 333 67 b 285 121 306 67 288 71 b 281 461 282 158 281 357 z m 304 513 b 281 569 281 513 281 526 l 281 656 b 288 842 281 697 282 736 l 413 842 b 572 690 514 842 572 788 b 503 547 572 624 543 574 b 346 513 460 517 406 513 z "},"C":{"ha":907,"x_min":0,"x_max":0,"o":"m 765 743 l 769 738 l 810 738 l 828 864 l 824 876 b 542 924 729 914 610 924 b 75 450 236 924 75 711 b 536 -15 75 172 260 -15 b 817 57 633 -15 725 7 l 847 119 l 833 135 b 561 57 746 74 636 57 b 186 456 346 57 186 194 b 317 788 186 593 231 717 b 533 850 371 831 442 850 b 765 743 638 850 753 825 z "},"Ç":{"ha":908,"x_min":0,"x_max":0,"o":"m 385 -256 b 511 -282 421 -271 467 -282 b 664 -165 599 -282 664 -226 b 554 -65 664 -108 618 -65 b 515 -71 540 -65 531 -65 l 547 -15 b 818 57 639 -14 729 8 l 849 119 l 835 135 b 563 57 747 74 638 57 b 188 456 347 57 188 194 b 318 788 188 593 232 717 b 535 850 372 831 443 850 b 767 743 639 850 754 825 l 771 738 l 811 738 l 829 864 l 825 876 b 543 924 731 914 611 924 b 76 450 238 924 76 711 b 492 -14 76 188 239 6 l 431 -107 l 443 -122 b 510 -112 463 -117 488 -112 b 582 -176 549 -112 582 -126 b 507 -232 582 -219 547 -232 b 411 -215 472 -232 433 -224 l 401 -215 l 383 -247 z "},"D":{"ha":1019,"x_min":0,"x_max":0,"o":"m 179 788 b 182 575 182 742 182 611 l 182 293 b 179 121 182 183 181 149 b 144 40 174 74 160 51 b 71 28 128 29 93 28 l 64 22 l 60 -3 l 63 -8 b 218 0 89 -7 192 0 l 292 0 b 476 -3 332 0 443 -3 b 943 456 783 -3 943 213 b 485 914 943 706 774 914 b 285 908 439 914 333 908 l 206 908 b 63 917 165 908 89 915 l 60 911 l 64 886 l 71 881 b 144 867 117 881 128 876 b 179 788 161 854 175 833 z m 353 67 b 285 121 306 67 290 72 b 281 321 281 153 281 210 l 281 576 b 288 842 281 710 282 736 l 479 842 b 831 456 700 842 831 679 b 486 67 831 239 708 67 z "},"E":{"ha":779,"x_min":0,"x_max":0,"o":"m 232 908 b 63 917 192 908 89 915 l 60 911 l 64 886 l 71 881 b 144 867 100 881 128 879 b 179 788 158 854 176 838 b 182 575 182 744 182 704 l 182 293 b 179 121 182 183 181 149 b 144 42 175 69 158 54 b 71 28 128 29 100 28 l 64 22 l 60 -3 l 63 -8 b 218 0 89 -7 192 0 l 499 0 b 699 -6 547 0 682 -6 l 710 8 l 735 185 l 699 185 l 693 179 b 433 67 668 78 657 67 l 315 67 b 288 93 296 67 288 74 b 281 321 281 164 281 189 l 281 456 b 529 436 397 454 507 460 b 557 364 544 419 557 393 l 563 360 l 588 357 l 593 360 b 586 483 590 404 586 439 b 593 593 586 524 590 551 l 588 596 l 564 593 l 557 586 b 529 532 557 558 543 547 b 281 508 508 506 393 511 l 281 576 b 285 788 281 710 282 736 l 288 842 l 421 842 b 654 754 643 842 649 840 l 660 749 l 694 749 l 700 900 l 693 914 b 460 908 676 914 508 908 z "},"É":{"ha":779,"x_min":0,"x_max":0,"o":"m 263 1039 l 543 1146 b 549 1172 547 1156 549 1164 b 500 1219 549 1199 531 1218 l 249 1081 l 244 1071 l 253 1043 z m 232 908 b 63 917 192 908 89 915 l 60 911 l 64 886 l 71 881 b 144 867 100 881 128 879 b 179 788 158 854 176 838 b 182 575 182 744 182 704 l 182 293 b 179 121 182 183 181 149 b 144 42 175 69 158 54 b 71 28 128 29 100 28 l 64 22 l 60 -3 l 63 -8 b 218 0 89 -7 192 0 l 499 0 b 699 -6 547 0 682 -6 l 710 8 l 735 185 l 699 185 l 693 179 b 433 67 668 78 657 67 l 315 67 b 288 93 296 67 288 74 b 281 321 281 164 281 189 l 281 456 b 529 436 397 454 507 460 b 557 364 544 419 557 393 l 563 360 l 588 357 l 593 360 b 586 483 590 404 586 439 b 593 593 586 524 590 551 l 588 596 l 564 593 l 557 586 b 529 532 557 558 543 547 b 281 508 508 506 393 511 l 281 576 b 285 788 281 710 282 736 l 288 842 l 421 842 b 654 754 643 842 649 840 l 660 749 l 694 749 l 700 900 l 693 914 b 460 908 676 914 508 908 z "},"Ê":{"ha":779,"x_min":0,"x_max":0,"o":"m 404 1211 l 251 1074 l 247 1064 l 256 1036 l 265 1032 l 410 1118 l 554 1032 l 564 1036 l 572 1064 l 568 1074 l 415 1211 z m 232 908 b 63 917 192 908 89 915 l 60 911 l 64 886 l 71 881 b 144 867 100 881 128 879 b 179 788 158 854 176 838 b 182 575 182 744 182 704 l 182 293 b 179 121 182 183 181 149 b 144 42 175 69 158 54 b 71 28 128 29 100 28 l 64 22 l 60 -3 l 63 -8 b 218 0 89 -7 192 0 l 499 0 b 699 -6 547 0 682 -6 l 710 8 l 735 185 l 699 185 l 693 179 b 433 67 668 78 657 67 l 315 67 b 288 93 296 67 288 74 b 281 321 281 164 281 189 l 281 456 b 529 436 397 454 507 460 b 557 364 544 419 557 393 l 563 360 l 588 357 l 593 360 b 586 483 590 404 586 439 b 593 593 586 524 590 551 l 588 596 l 564 593 l 557 586 b 529 532 557 558 543 547 b 281 508 508 506 393 511 l 281 576 b 285 788 281 710 282 736 l 288 842 l 421 842 b 654 754 643 842 649 840 l 660 749 l 694 749 l 700 900 l 693 914 b 460 908 676 914 508 908 z "},"Ë":{"ha":779,"x_min":0,"x_max":0,"o":"m 244 1153 b 301 1092 244 1118 269 1092 b 360 1153 332 1092 360 1118 b 301 1215 360 1186 332 1215 b 244 1153 269 1215 244 1186 z m 435 1153 b 492 1092 435 1118 460 1092 b 550 1153 522 1092 550 1118 b 492 1215 550 1186 522 1215 b 435 1153 460 1215 435 1186 z m 232 908 b 63 917 192 908 89 915 l 60 911 l 64 886 l 71 881 b 144 867 100 881 128 879 b 179 788 158 854 176 838 b 182 575 182 744 182 704 l 182 293 b 179 121 182 183 181 149 b 144 42 175 69 158 54 b 71 28 128 29 100 28 l 64 22 l 60 -3 l 63 -8 b 218 0 89 -7 192 0 l 499 0 b 699 -6 547 0 682 -6 l 710 8 l 735 185 l 699 185 l 693 179 b 433 67 668 78 657 67 l 315 67 b 288 93 296 67 288 74 b 281 321 281 164 281 189 l 281 456 b 529 436 397 454 507 460 b 557 364 544 419 557 393 l 563 360 l 588 357 l 593 360 b 586 483 590 404 586 439 b 593 593 586 524 590 551 l 588 596 l 564 593 l 557 586 b 529 532 557 558 543 547 b 281 508 508 506 393 511 l 281 576 b 285 788 281 710 282 736 l 288 842 l 421 842 b 654 754 643 842 649 840 l 660 749 l 694 749 l 700 900 l 693 914 b 460 908 676 914 508 908 z "},"È":{"ha":779,"x_min":0,"x_max":0,"o":"m 540 1043 l 549 1071 l 544 1081 l 293 1219 b 244 1172 261 1218 244 1199 b 250 1146 244 1164 246 1156 l 529 1039 z m 232 908 b 63 917 192 908 89 915 l 60 911 l 64 886 l 71 881 b 144 867 100 881 128 879 b 179 788 158 854 176 838 b 182 575 182 744 182 704 l 182 293 b 179 121 182 183 181 149 b 144 42 175 69 158 54 b 71 28 128 29 100 28 l 64 22 l 60 -3 l 63 -8 b 218 0 89 -7 192 0 l 499 0 b 699 -6 547 0 682 -6 l 710 8 l 735 185 l 699 185 l 693 179 b 433 67 668 78 657 67 l 315 67 b 288 93 296 67 288 74 b 281 321 281 164 281 189 l 281 456 b 529 436 397 454 507 460 b 557 364 544 419 557 393 l 563 360 l 588 357 l 593 360 b 586 483 590 404 586 439 b 593 593 586 524 590 551 l 588 596 l 564 593 l 557 586 b 529 532 557 558 543 547 b 281 508 508 506 393 511 l 281 576 b 285 788 281 710 282 736 l 288 842 l 421 842 b 654 754 643 842 649 840 l 660 749 l 694 749 l 700 900 l 693 914 b 460 908 676 914 508 908 z "},"Ð":{"ha":1021,"x_min":0,"x_max":0,"o":"m 61 453 l 183 453 l 183 293 b 181 121 183 183 182 149 b 146 40 175 74 161 51 b 72 28 129 29 94 28 l 65 22 l 61 -3 l 64 -8 b 219 0 90 -7 193 0 l 293 0 b 478 -3 333 0 444 -3 b 944 456 785 -3 944 213 b 486 914 944 706 775 914 b 286 908 440 914 335 908 l 207 908 b 64 917 167 908 90 915 l 61 911 l 65 886 l 72 881 b 146 867 118 881 129 876 b 181 788 163 854 176 833 b 183 575 183 742 183 611 l 183 514 l 72 514 z m 354 67 b 286 121 307 67 292 72 b 282 321 282 153 282 210 l 282 453 l 518 453 l 529 514 l 282 514 l 282 576 b 289 842 282 710 283 736 l 481 842 b 832 456 701 842 832 679 b 488 67 832 239 710 67 z "},"€":{"ha":868,"x_min":0,"x_max":0,"o":"m 633 426 l 265 426 l 265 500 l 646 500 l 657 561 l 272 561 b 372 788 288 654 319 735 b 550 850 414 829 464 850 b 715 743 625 850 706 835 l 719 738 l 758 738 l 779 864 l 776 876 b 550 924 700 914 604 924 b 168 561 343 924 204 769 l 64 561 l 53 500 l 160 500 l 160 426 l 63 426 l 53 365 l 164 365 b 546 -15 193 135 346 -15 b 774 57 624 -15 701 7 l 801 119 l 790 135 b 565 57 721 74 626 57 b 271 365 415 57 297 163 l 622 365 z "},"F":{"ha":735,"x_min":0,"x_max":0,"o":"m 179 788 b 182 575 181 744 182 704 l 182 293 b 179 121 182 183 181 149 b 144 42 175 69 158 54 b 71 28 128 29 100 28 l 64 22 l 60 -3 l 63 -8 b 218 0 89 -7 192 0 l 244 0 b 414 -8 271 0 388 -7 l 417 -3 l 413 22 l 406 28 b 322 42 376 28 339 29 b 285 121 307 54 288 69 b 281 321 282 164 281 189 l 281 456 b 529 436 397 454 507 460 b 557 364 544 419 557 393 l 563 360 l 588 357 l 593 360 b 586 483 590 404 586 439 b 593 593 586 524 590 551 l 588 596 l 564 593 l 557 586 b 529 532 557 558 543 547 b 281 508 508 506 393 511 l 281 576 b 285 788 281 710 282 736 l 288 842 l 421 842 b 654 754 643 842 649 840 l 660 749 l 694 749 l 700 900 l 693 914 b 460 908 676 914 508 908 l 218 908 b 63 917 192 908 89 915 l 60 911 l 64 886 l 71 881 b 144 867 100 881 128 879 b 179 788 158 854 175 839 z "},"G":{"ha":957,"x_min":0,"x_max":0,"o":"m 822 42 b 818 104 819 50 818 96 b 822 251 818 158 819 200 b 897 342 825 306 843 342 l 904 347 l 907 381 l 904 386 b 782 378 878 385 808 378 l 740 378 b 589 386 714 378 615 385 l 586 381 l 590 350 l 597 344 b 682 331 626 344 665 343 b 717 251 696 318 713 300 b 719 125 719 215 719 151 b 708 96 719 111 715 99 b 538 67 658 76 594 67 b 188 454 322 67 188 210 b 318 788 188 593 232 717 b 533 850 372 831 443 850 b 764 735 639 850 751 828 l 769 731 l 808 731 l 826 856 l 824 868 b 543 924 728 906 611 924 b 76 449 238 924 76 711 b 521 -15 76 197 226 -15 b 817 35 658 -15 726 7 z "},"H":{"ha":1056,"x_min":0,"x_max":0,"o":"m 996 -3 l 992 22 l 985 28 b 911 42 956 28 928 29 b 876 121 897 54 879 69 b 874 321 874 164 874 189 l 874 576 b 876 788 874 710 874 736 b 911 867 881 839 897 854 b 985 881 928 879 956 881 l 992 886 l 996 911 l 993 917 b 838 908 967 915 864 908 l 811 908 b 656 917 785 908 682 915 l 653 911 l 657 886 l 663 881 b 738 867 692 881 721 879 b 771 788 751 854 768 839 b 775 575 774 744 775 704 l 775 514 l 281 514 l 281 576 b 285 788 281 710 281 736 b 318 867 288 839 304 854 b 393 881 335 879 364 881 l 399 886 l 403 911 l 400 917 b 244 908 374 915 271 908 l 218 908 b 63 917 192 908 89 915 l 60 911 l 64 886 l 71 881 b 144 867 100 881 128 879 b 178 788 158 854 174 838 b 182 575 182 744 182 704 l 182 293 b 179 121 182 183 181 149 b 144 42 175 69 158 54 b 71 28 128 29 100 28 l 64 22 l 60 -3 l 63 -8 b 218 0 89 -7 192 0 l 244 0 b 400 -8 271 0 374 -7 l 403 -3 l 399 22 l 393 28 b 318 42 364 28 335 29 b 285 121 304 54 288 69 b 281 321 282 164 281 189 l 281 453 l 775 453 l 775 293 b 771 121 775 183 774 149 b 738 42 765 69 751 54 b 663 28 721 29 692 28 l 657 22 l 653 -3 l 656 -8 b 811 0 682 -7 785 0 l 838 0 b 993 -8 864 0 967 -7 z "},"I":{"ha":464,"x_min":0,"x_max":0,"o":"m 400 917 b 244 908 374 915 271 908 l 218 908 b 63 917 192 908 89 915 l 60 911 l 64 886 l 71 881 b 144 867 100 881 128 879 b 178 788 158 854 174 836 b 182 575 182 744 182 704 l 182 293 b 179 121 182 183 181 149 b 144 42 175 69 158 54 b 71 28 128 29 100 28 l 64 22 l 60 -3 l 63 -8 b 218 0 89 -7 192 0 l 244 0 b 400 -8 271 0 374 -7 l 403 -3 l 399 22 l 393 28 b 318 42 364 28 335 29 b 285 121 304 54 288 69 b 281 321 282 164 281 189 l 281 576 b 285 788 281 710 281 736 b 318 867 288 839 304 854 b 393 881 335 879 364 881 l 399 886 l 403 911 z "},"Í":{"ha":464,"x_min":0,"x_max":0,"o":"m 99 1039 l 378 1146 b 383 1172 382 1156 383 1164 b 335 1219 383 1199 367 1218 l 83 1081 l 79 1071 l 88 1043 z m 400 917 b 244 908 374 915 271 908 l 218 908 b 63 917 192 908 89 915 l 60 911 l 64 886 l 71 881 b 144 867 100 881 128 879 b 178 788 158 854 174 836 b 182 575 182 744 182 704 l 182 293 b 179 121 182 183 181 149 b 144 42 175 69 158 54 b 71 28 128 29 100 28 l 64 22 l 60 -3 l 63 -8 b 218 0 89 -7 192 0 l 244 0 b 400 -8 271 0 374 -7 l 403 -3 l 399 22 l 393 28 b 318 42 364 28 335 29 b 285 121 304 54 288 69 b 281 321 282 164 281 189 l 281 576 b 285 788 281 710 281 736 b 318 867 288 839 304 854 b 393 881 335 879 364 881 l 399 886 l 403 911 z "},"Î":{"ha":464,"x_min":0,"x_max":0,"o":"m 226 1211 l 74 1074 l 69 1064 l 76 1036 l 88 1032 l 232 1118 l 375 1032 l 386 1036 l 394 1064 l 390 1074 l 236 1211 z m 400 917 b 244 908 374 915 271 908 l 218 908 b 63 917 192 908 89 915 l 60 911 l 64 886 l 71 881 b 144 867 100 881 128 879 b 178 788 158 854 174 836 b 182 575 182 744 182 704 l 182 293 b 179 121 182 183 181 149 b 144 42 175 69 158 54 b 71 28 128 29 100 28 l 64 22 l 60 -3 l 63 -8 b 218 0 89 -7 192 0 l 244 0 b 400 -8 271 0 374 -7 l 403 -3 l 399 22 l 393 28 b 318 42 364 28 335 29 b 285 121 304 54 288 69 b 281 321 282 164 281 189 l 281 576 b 285 788 281 710 281 736 b 318 867 288 839 304 854 b 393 881 335 879 364 881 l 399 886 l 403 911 z "},"Ï":{"ha":464,"x_min":0,"x_max":0,"o":"m 85 1153 b 142 1092 85 1118 110 1092 b 200 1153 172 1092 200 1118 b 142 1215 200 1186 172 1215 b 85 1153 110 1215 85 1186 z m 275 1153 b 332 1092 275 1118 300 1092 b 390 1153 363 1092 390 1118 b 332 1215 390 1186 363 1215 b 275 1153 300 1215 275 1186 z m 400 917 b 244 908 374 915 271 908 l 218 908 b 63 917 192 908 89 915 l 60 911 l 64 886 l 71 881 b 144 867 100 881 128 879 b 178 788 158 854 174 836 b 182 575 182 744 182 704 l 182 293 b 179 121 182 183 181 149 b 144 42 175 69 158 54 b 71 28 128 29 100 28 l 64 22 l 60 -3 l 63 -8 b 218 0 89 -7 192 0 l 244 0 b 400 -8 271 0 374 -7 l 403 -3 l 399 22 l 393 28 b 318 42 364 28 335 29 b 285 121 304 54 288 69 b 281 321 282 164 281 189 l 281 576 b 285 788 281 710 281 736 b 318 867 288 839 304 854 b 393 881 335 879 364 881 l 399 886 l 403 911 z "},"Ì":{"ha":464,"x_min":0,"x_max":0,"o":"m 375 1043 l 383 1071 l 379 1081 l 128 1219 b 79 1172 97 1218 79 1199 b 85 1146 79 1164 81 1156 l 365 1039 z m 400 917 b 244 908 374 915 271 908 l 218 908 b 63 917 192 908 89 915 l 60 911 l 64 886 l 71 881 b 144 867 100 881 128 879 b 178 788 158 854 174 836 b 182 575 182 744 182 704 l 182 293 b 179 121 182 183 181 149 b 144 42 175 69 158 54 b 71 28 128 29 100 28 l 64 22 l 60 -3 l 63 -8 b 218 0 89 -7 192 0 l 244 0 b 400 -8 271 0 374 -7 l 403 -3 l 399 22 l 393 28 b 318 42 364 28 335 29 b 285 121 304 54 288 69 b 281 321 282 164 281 189 l 281 576 b 285 788 281 710 281 736 b 318 867 288 839 304 854 b 393 881 335 879 364 881 l 399 886 l 403 911 z "},"J":{"ha":444,"x_min":0,"x_max":0,"o":"m 392 917 b 236 908 365 915 263 908 l 210 908 b 54 917 183 908 81 915 l 51 911 l 56 886 l 63 881 b 136 867 92 881 119 879 b 169 788 150 854 167 838 b 174 575 172 744 174 704 l 174 293 b 122 -143 174 44 174 -90 b 90 -168 113 -153 100 -162 b 31 -175 72 -175 54 -175 l 25 -182 l 28 -212 l 39 -217 b 89 -212 53 -217 74 -215 b 271 106 204 -192 269 -43 b 272 321 271 147 272 189 l 272 576 b 276 788 272 710 272 736 b 310 867 279 839 296 854 b 385 881 326 879 356 881 l 390 886 l 394 911 z "},"K":{"ha":911,"x_min":0,"x_max":0,"o":"m 400 917 b 244 908 374 915 271 908 l 218 908 b 63 917 192 908 89 915 l 60 911 l 64 886 l 71 881 b 144 867 100 881 128 879 b 179 788 158 854 176 838 b 182 575 182 744 182 704 l 182 293 b 179 121 182 183 181 149 b 144 42 175 69 158 54 b 71 28 128 29 100 28 l 64 22 l 60 -3 l 63 -8 b 218 0 89 -7 192 0 l 244 0 b 400 -8 271 0 374 -7 l 403 -3 l 399 22 l 393 28 b 318 42 364 28 335 29 b 285 121 304 54 288 69 b 281 321 282 164 281 189 l 281 415 b 340 458 303 433 319 443 l 346 458 b 572 138 407 369 560 153 b 796 -14 663 25 701 -14 b 926 -8 825 -14 886 -8 l 929 -3 l 926 22 l 918 28 b 675 174 792 42 749 88 b 419 514 582 283 497 396 l 531 628 b 742 850 656 756 704 826 b 842 881 769 868 818 875 l 847 886 l 847 911 l 842 917 b 731 908 790 910 774 908 l 663 908 b 540 917 618 908 578 911 l 533 911 l 533 886 l 540 881 b 615 828 576 872 615 869 b 475 644 615 803 554 724 b 281 482 408 578 331 513 l 281 576 b 285 788 281 710 281 736 b 318 867 288 839 304 854 b 393 881 335 879 364 881 l 399 886 l 403 911 z "},"L":{"ha":714,"x_min":0,"x_max":0,"o":"m 179 788 b 182 575 181 744 182 704 l 182 293 b 179 121 182 183 181 149 b 144 42 174 69 158 54 b 71 28 128 29 100 28 l 64 22 l 60 -3 l 63 -8 b 218 0 89 -7 192 0 l 499 0 b 661 -6 547 0 644 -6 l 672 8 l 697 185 l 661 185 l 657 179 b 433 67 632 78 657 67 l 315 67 b 288 93 296 67 288 74 l 285 121 b 281 321 283 164 281 189 l 281 576 b 285 788 281 710 281 736 b 318 867 288 839 304 854 b 393 881 335 879 364 881 l 399 886 l 403 911 l 400 917 b 244 908 374 915 271 908 l 218 908 b 63 917 192 908 89 915 l 60 911 l 64 886 l 71 881 b 144 867 100 881 128 879 b 179 788 158 854 175 839 z "},"M":{"ha":1240,"x_min":0,"x_max":0,"o":"m 1210 -3 l 1206 22 l 1199 28 b 1124 42 1169 28 1140 29 b 1085 121 1108 54 1092 69 b 1065 321 1078 164 1075 189 l 1049 576 b 1038 788 1039 710 1038 736 b 1072 867 1038 838 1058 856 b 1146 881 1088 879 1117 881 l 1153 886 l 1157 911 l 1154 917 b 999 908 1128 915 1025 908 l 949 908 b 901 914 933 908 917 911 l 894 908 b 622 178 872 756 639 203 b 543 371 601 225 575 282 l 449 628 b 353 910 408 738 357 863 l 346 914 b 290 908 329 911 304 908 l 242 908 b 86 917 215 908 113 915 l 83 911 l 88 886 l 94 881 b 168 867 124 881 151 879 b 203 788 183 856 203 839 b 192 575 203 744 201 704 l 172 293 b 156 121 164 183 160 149 b 115 42 149 69 131 54 b 42 28 97 29 69 28 l 33 22 l 29 -3 l 32 -8 b 186 0 58 -7 160 0 l 213 0 b 346 -8 239 0 319 -7 l 349 -3 l 344 22 l 339 28 b 276 42 310 28 290 29 b 247 121 263 54 247 69 b 257 321 247 164 247 196 l 276 576 b 290 763 285 686 286 725 l 572 18 l 631 18 b 933 765 711 207 892 665 b 971 293 938 729 943 682 b 978 121 978 183 978 149 b 950 42 978 69 963 54 b 876 28 935 29 906 28 l 871 22 l 867 -3 l 871 -8 b 1026 0 897 -7 1000 0 l 1053 0 b 1208 -8 1079 0 1182 -7 z "},"N":{"ha":1036,"x_min":0,"x_max":0,"o":"m 982 917 b 851 908 956 914 878 908 l 786 908 b 657 917 760 908 683 915 l 654 911 l 658 886 l 664 881 b 739 867 693 881 722 879 b 772 788 753 854 768 839 b 776 575 775 744 776 704 l 776 293 b 775 183 776 221 776 210 b 488 599 746 225 628 374 b 308 910 411 721 322 858 l 301 914 b 244 908 285 911 258 908 l 196 908 b 63 917 169 908 89 915 l 60 911 l 64 886 l 71 881 b 144 867 101 881 128 879 b 179 788 161 854 176 826 b 182 575 182 744 182 704 l 182 293 b 179 121 182 183 182 149 b 144 42 174 67 157 51 b 71 28 126 29 104 28 l 64 22 l 60 -3 l 63 -8 b 218 0 89 -7 192 0 l 244 0 b 389 -8 271 0 363 -7 l 392 -3 l 388 22 l 381 28 b 306 42 343 28 321 31 b 271 121 288 54 275 75 b 267 321 267 164 267 278 l 267 576 b 268 750 267 679 267 714 l 768 10 l 782 -7 l 863 -12 l 874 -6 b 864 332 867 83 864 125 l 864 576 b 868 788 864 710 864 736 b 900 867 872 839 885 854 b 974 881 915 879 944 881 l 981 886 l 983 911 z "},"Ñ":{"ha":1036,"x_min":0,"x_max":0,"o":"m 749 1204 l 732 1215 b 642 1179 708 1182 672 1179 b 394 1190 561 1179 440 1190 b 267 1085 314 1190 267 1113 l 286 1075 b 363 1108 303 1097 315 1108 b 626 1097 421 1108 588 1097 b 749 1204 715 1097 749 1192 z m 982 917 b 851 908 956 914 878 908 l 786 908 b 657 917 760 908 683 915 l 654 911 l 658 886 l 664 881 b 739 867 693 881 722 879 b 772 788 753 854 768 839 b 776 575 775 744 776 704 l 776 293 b 775 183 776 221 776 210 b 488 599 746 225 628 374 b 308 910 411 721 322 858 l 301 914 b 244 908 285 911 258 908 l 196 908 b 63 917 169 908 89 915 l 60 911 l 64 886 l 71 881 b 144 867 101 881 128 879 b 179 788 161 854 176 826 b 182 575 182 744 182 704 l 182 293 b 179 121 182 183 182 149 b 144 42 174 67 157 51 b 71 28 126 29 104 28 l 64 22 l 60 -3 l 63 -8 b 218 0 89 -7 192 0 l 244 0 b 389 -8 271 0 363 -7 l 392 -3 l 388 22 l 381 28 b 306 42 343 28 321 31 b 271 121 288 54 275 75 b 267 321 267 164 267 278 l 267 576 b 268 750 267 679 267 714 l 768 10 l 782 -7 l 863 -12 l 874 -6 b 864 332 867 83 864 125 l 864 576 b 868 788 864 710 864 736 b 900 867 872 839 885 854 b 974 881 915 879 944 881 l 981 886 l 983 911 z "},"O":{"ha":1060,"x_min":0,"x_max":0,"o":"m 531 924 b 76 447 244 924 76 711 b 521 -15 76 199 226 -15 b 985 457 825 -15 985 213 b 531 924 985 707 819 924 z m 529 58 b 185 457 326 58 185 210 b 522 850 185 682 303 850 b 878 456 743 850 878 679 b 529 58 878 239 750 58 z "},"Œ":{"ha":1324,"x_min":0,"x_max":0,"o":"m 722 758 b 740 575 735 721 740 672 l 740 293 b 729 92 740 183 736 147 b 554 57 660 63 599 57 b 189 468 332 57 189 185 b 544 850 189 690 278 850 b 722 758 653 850 700 824 z m 789 908 b 532 924 685 908 615 924 b 78 447 219 924 78 711 b 544 -15 78 172 235 -15 b 828 0 635 -15 751 0 l 1042 0 b 1243 -6 1092 0 1226 -6 l 1253 8 l 1279 185 l 1243 185 l 1238 179 b 978 67 1213 78 1200 67 l 874 67 b 844 93 853 67 846 74 b 838 321 838 164 838 189 l 838 456 b 1074 436 965 454 1047 460 b 1101 364 1086 425 1101 393 l 1107 360 l 1132 357 l 1138 360 b 1131 482 1135 404 1131 439 b 1138 606 1131 524 1135 565 l 1132 608 l 1108 606 l 1101 600 b 1074 532 1101 572 1085 543 b 838 508 1047 506 972 511 l 838 576 b 842 788 838 624 838 733 l 846 842 l 964 842 b 1199 754 1188 842 1193 840 l 1203 749 l 1239 749 l 1244 900 l 1238 914 b 1004 908 1221 914 1053 908 z "},"Ó":{"ha":1060,"x_min":0,"x_max":0,"o":"m 531 924 b 76 447 244 924 76 711 b 521 -15 76 199 226 -15 b 985 457 825 -15 985 213 b 531 924 985 707 819 924 z m 529 58 b 185 457 326 58 185 210 b 522 850 185 682 303 850 b 878 456 743 850 878 679 b 529 58 878 239 750 58 z m 436 1039 l 717 1146 b 721 1172 719 1156 721 1164 b 672 1219 721 1199 704 1218 l 422 1081 l 418 1071 l 425 1043 z "},"Ô":{"ha":1060,"x_min":0,"x_max":0,"o":"m 531 924 b 76 447 244 924 76 711 b 521 -15 76 199 226 -15 b 985 457 825 -15 985 213 b 531 924 985 707 819 924 z m 529 58 b 185 457 326 58 185 210 b 522 850 185 682 303 850 b 878 456 743 850 878 679 b 529 58 878 239 750 58 z m 539 1211 l 386 1074 l 382 1064 l 390 1036 l 400 1032 l 544 1118 l 689 1032 l 699 1036 l 707 1064 l 703 1074 l 550 1211 z "},"Ö":{"ha":1060,"x_min":0,"x_max":0,"o":"m 531 924 b 76 447 244 924 76 711 b 521 -15 76 199 226 -15 b 985 457 825 -15 985 213 b 531 924 985 707 819 924 z m 529 58 b 185 457 326 58 185 210 b 522 850 185 682 303 850 b 878 456 743 850 878 679 b 529 58 878 239 750 58 z m 401 1153 b 458 1092 401 1118 426 1092 b 517 1153 489 1092 517 1118 b 458 1215 517 1186 489 1215 b 401 1153 426 1215 401 1186 z m 592 1153 b 649 1092 592 1118 617 1092 b 707 1153 679 1092 707 1118 b 649 1215 707 1186 679 1215 b 592 1153 617 1215 592 1186 z "},"Ò":{"ha":1060,"x_min":0,"x_max":0,"o":"m 531 924 b 76 447 244 924 76 711 b 521 -15 76 199 226 -15 b 985 457 825 -15 985 213 b 531 924 985 707 819 924 z m 529 58 b 185 457 326 58 185 210 b 522 850 185 682 303 850 b 878 456 743 850 878 679 b 529 58 878 239 750 58 z m 635 1043 l 642 1071 l 638 1081 l 388 1219 b 339 1172 356 1218 339 1199 b 344 1146 339 1164 340 1156 l 624 1039 z "},"Ø":{"ha":1061,"x_min":0,"x_max":0,"o":"m 531 924 b 76 447 246 924 76 711 b 186 125 76 324 114 210 l 60 -21 l 57 -26 l 150 -26 l 157 -21 l 239 74 b 522 -15 311 17 404 -15 b 986 457 825 -15 986 213 b 860 790 986 585 942 706 l 982 933 l 985 939 l 893 939 l 885 933 l 804 840 b 531 924 732 893 640 924 z m 529 58 b 301 146 439 58 360 89 l 796 718 b 878 456 849 650 878 558 b 529 58 878 239 751 58 z m 186 457 b 524 850 186 682 304 850 b 746 772 613 850 688 821 l 254 203 b 186 457 210 268 186 354 z "},"Õ":{"ha":1060,"x_min":0,"x_max":0,"o":"m 531 924 b 76 447 244 924 76 711 b 521 -15 76 199 226 -15 b 985 457 825 -15 985 213 b 531 924 985 707 819 924 z m 529 58 b 185 457 326 58 185 210 b 522 850 185 682 303 850 b 878 456 743 850 878 679 b 529 58 878 239 750 58 z m 772 1204 l 756 1215 b 665 1179 732 1182 696 1179 b 418 1190 585 1179 464 1190 b 290 1085 339 1190 290 1113 l 310 1075 b 386 1108 326 1097 340 1108 b 650 1097 444 1108 611 1097 b 772 1204 739 1097 772 1192 z "},"P":{"ha":761,"x_min":0,"x_max":0,"o":"m 403 -3 l 399 22 l 393 28 b 318 42 346 28 335 32 b 285 121 307 51 288 68 b 281 392 282 160 281 290 l 358 392 b 719 658 522 392 719 443 b 379 910 719 807 626 910 b 240 908 351 910 281 908 l 190 908 b 63 917 151 908 89 915 l 60 911 l 64 886 l 71 881 b 144 867 117 881 128 876 b 179 788 160 854 176 836 b 182 654 182 742 182 690 l 182 293 b 179 121 182 183 181 149 b 144 40 174 74 160 51 b 71 28 128 29 93 28 l 64 22 l 60 -3 l 63 -8 b 218 0 89 -7 192 0 l 244 0 b 400 -8 271 0 374 -7 z m 333 453 b 281 504 286 453 281 457 l 281 656 b 288 842 281 697 282 736 l 408 842 b 624 651 540 842 624 778 b 407 453 624 528 561 453 z "},"Q":{"ha":1060,"x_min":0,"x_max":0,"o":"m 531 924 b 76 447 244 924 76 711 b 513 -15 76 200 224 -12 b 340 -74 433 -21 381 -46 l 339 -78 l 346 -97 l 350 -99 b 504 -69 383 -75 460 -69 b 936 -192 697 -69 808 -192 b 1104 -107 1006 -192 1061 -157 l 1106 -101 l 1100 -90 l 1096 -87 b 992 -114 1056 -111 1017 -114 b 554 -14 842 -114 747 -17 b 985 457 835 1 985 222 b 531 924 985 707 819 924 z m 529 58 b 185 457 326 58 185 210 b 522 850 185 682 303 850 b 878 456 743 850 878 679 b 529 58 878 239 750 58 z "},"R":{"ha":881,"x_min":0,"x_max":0,"o":"m 404 -3 l 400 22 l 394 28 b 319 42 347 28 336 32 b 286 121 308 51 289 68 b 282 407 283 160 282 306 l 383 407 b 574 138 454 304 563 149 b 797 -14 663 29 703 -14 b 928 -8 826 -14 888 -8 l 931 -3 l 928 22 l 919 28 b 676 174 793 42 750 88 b 488 417 610 251 546 335 b 721 674 594 442 721 515 b 381 910 721 808 628 910 b 242 908 353 910 282 908 l 192 908 b 64 917 153 908 90 915 l 61 911 l 65 886 l 72 881 b 146 867 118 881 129 876 b 179 788 161 854 176 831 b 183 654 182 742 183 690 l 183 293 b 181 121 183 183 182 149 b 146 40 175 74 161 51 b 72 28 129 29 94 28 l 65 22 l 61 -3 l 64 -8 b 219 0 90 -7 193 0 l 246 0 b 401 -8 272 0 375 -7 z m 335 468 b 282 519 288 468 282 471 l 282 656 b 289 842 282 697 283 736 l 410 842 b 625 665 542 842 625 778 b 408 468 625 546 563 468 z "},"S":{"ha":764,"x_min":0,"x_max":0,"o":"m 192 706 b 385 858 192 803 265 858 b 576 744 453 858 569 842 l 583 738 l 622 738 l 642 861 l 636 876 b 386 924 581 901 486 924 b 90 686 221 924 90 860 b 353 431 90 539 206 478 b 594 225 472 392 594 356 b 376 47 594 121 521 47 b 142 211 236 47 151 99 l 135 219 l 100 219 l 76 71 l 82 53 b 367 -15 157 14 253 -15 b 701 243 543 -15 701 54 b 424 526 701 421 563 483 b 192 706 265 576 192 603 z "},"Š":{"ha":764,"x_min":0,"x_max":0,"o":"m 390 1032 l 544 1169 l 547 1179 l 540 1207 l 529 1211 l 385 1125 l 242 1211 l 231 1207 l 224 1179 l 226 1169 l 381 1032 z m 192 706 b 385 858 192 803 265 858 b 576 744 453 858 569 842 l 583 738 l 622 738 l 642 861 l 636 876 b 386 924 581 901 486 924 b 90 686 221 924 90 860 b 353 431 90 539 206 478 b 594 225 472 392 594 356 b 376 47 594 121 521 47 b 142 211 236 47 151 99 l 135 219 l 100 219 l 76 71 l 82 53 b 367 -15 157 14 253 -15 b 701 243 543 -15 701 54 b 424 526 701 421 563 483 b 192 706 265 576 192 603 z "},"T":{"ha":818,"x_min":0,"x_max":0,"o":"m 601 -3 l 597 22 l 590 28 b 501 42 561 28 517 29 b 463 121 486 54 467 69 b 458 321 460 164 458 189 l 458 576 b 461 842 458 701 460 789 l 476 842 b 719 826 660 842 704 836 b 757 754 740 815 753 789 l 763 749 l 796 749 l 785 907 l 779 919 l 771 924 b 496 908 742 911 544 908 l 321 908 b 46 924 272 908 76 911 l 38 919 l 32 907 l 22 749 l 54 749 l 60 754 b 97 826 64 789 76 815 b 342 842 113 836 157 842 l 357 842 b 361 575 358 794 361 694 l 361 293 b 357 121 361 183 360 149 b 318 42 353 69 333 54 b 229 28 303 29 258 28 l 222 22 l 218 -3 l 221 -8 b 369 0 247 -7 343 0 l 449 0 b 599 -8 475 0 572 -7 z "},"Þ":{"ha":738,"x_min":0,"x_max":0,"o":"m 400 917 b 244 908 374 915 271 908 l 218 908 b 63 917 192 908 89 915 l 60 911 l 64 886 l 71 881 b 144 867 100 881 128 879 b 179 788 158 854 176 835 b 182 575 182 744 182 704 l 182 293 b 179 121 182 183 181 149 b 144 42 175 69 158 54 b 71 28 128 29 100 28 l 64 22 l 60 -3 l 63 -8 b 218 0 89 -7 192 0 l 244 0 b 400 -8 271 0 374 -7 l 403 -3 l 399 22 l 393 28 b 318 42 364 28 335 29 b 285 121 304 54 288 69 b 281 260 282 156 281 182 l 332 260 b 693 526 496 260 693 311 b 353 776 693 675 600 776 l 283 776 b 318 867 286 815 290 843 b 393 881 335 879 364 881 l 399 886 l 403 911 z m 281 710 l 382 710 b 597 519 514 710 597 646 b 381 321 597 396 535 321 l 281 321 z "},"U":{"ha":1004,"x_min":0,"x_max":0,"o":"m 965 917 b 817 908 939 915 843 908 l 786 908 b 646 917 760 908 672 915 l 643 911 l 647 886 l 654 881 b 728 867 683 881 713 879 b 763 788 743 854 758 839 b 767 576 767 736 767 710 l 767 347 b 511 67 767 147 671 67 b 257 347 351 67 257 147 l 257 576 b 261 788 257 710 257 736 b 294 867 264 839 281 854 b 369 881 311 879 340 881 l 375 886 l 379 911 l 376 917 b 221 908 350 915 247 908 l 194 908 b 39 917 168 908 65 915 l 36 911 l 40 886 l 47 881 b 121 867 76 881 104 879 b 156 788 135 854 153 838 b 158 575 158 744 158 704 l 158 308 b 511 -15 158 126 251 -15 b 846 308 739 -15 846 126 l 846 575 b 850 788 846 704 847 744 b 883 867 853 839 869 854 b 958 881 900 879 929 881 l 964 886 l 968 911 z "},"Ú":{"ha":1004,"x_min":0,"x_max":0,"o":"m 396 1039 l 675 1146 b 681 1172 679 1156 681 1164 b 632 1219 681 1199 664 1218 l 381 1081 l 376 1071 l 385 1043 z m 965 917 b 817 908 939 915 843 908 l 786 908 b 646 917 760 908 672 915 l 643 911 l 647 886 l 654 881 b 728 867 683 881 713 879 b 763 788 743 854 758 839 b 767 576 767 736 767 710 l 767 347 b 511 67 767 147 671 67 b 257 347 351 67 257 147 l 257 576 b 261 788 257 710 257 736 b 294 867 264 839 281 854 b 369 881 311 879 340 881 l 375 886 l 379 911 l 376 917 b 221 908 350 915 247 908 l 194 908 b 39 917 168 908 65 915 l 36 911 l 40 886 l 47 881 b 121 867 76 881 104 879 b 156 788 135 854 153 838 b 158 575 158 744 158 704 l 158 308 b 511 -15 158 126 251 -15 b 846 308 739 -15 846 126 l 846 575 b 850 788 846 704 847 744 b 883 867 853 839 869 854 b 958 881 900 879 929 881 l 964 886 l 968 911 z "},"Û":{"ha":1004,"x_min":0,"x_max":0,"o":"m 499 1211 l 344 1074 l 342 1064 l 349 1036 l 360 1032 l 504 1118 l 647 1032 l 658 1036 l 665 1064 l 663 1074 l 508 1211 z m 965 917 b 817 908 939 915 843 908 l 786 908 b 646 917 760 908 672 915 l 643 911 l 647 886 l 654 881 b 728 867 683 881 713 879 b 763 788 743 854 758 839 b 767 576 767 736 767 710 l 767 347 b 511 67 767 147 671 67 b 257 347 351 67 257 147 l 257 576 b 261 788 257 710 257 736 b 294 867 264 839 281 854 b 369 881 311 879 340 881 l 375 886 l 379 911 l 376 917 b 221 908 350 915 247 908 l 194 908 b 39 917 168 908 65 915 l 36 911 l 40 886 l 47 881 b 121 867 76 881 104 879 b 156 788 135 854 153 838 b 158 575 158 744 158 704 l 158 308 b 511 -15 158 126 251 -15 b 846 308 739 -15 846 126 l 846 575 b 850 788 846 704 847 744 b 883 867 853 839 869 854 b 958 881 900 879 929 881 l 964 886 l 968 911 z "},"Ü":{"ha":1004,"x_min":0,"x_max":0,"o":"m 372 1153 b 429 1092 372 1118 397 1092 b 488 1153 460 1092 488 1118 b 429 1215 488 1186 460 1215 b 372 1153 397 1215 372 1186 z m 563 1153 b 619 1092 563 1118 588 1092 b 678 1153 650 1092 678 1118 b 619 1215 678 1186 650 1215 b 563 1153 588 1215 563 1186 z m 965 917 b 817 908 939 915 843 908 l 786 908 b 646 917 760 908 672 915 l 643 911 l 647 886 l 654 881 b 728 867 683 881 713 879 b 763 788 743 854 758 839 b 767 576 767 736 767 710 l 767 347 b 511 67 767 147 671 67 b 257 347 351 67 257 147 l 257 576 b 261 788 257 710 257 736 b 294 867 264 839 281 854 b 369 881 311 879 340 881 l 375 886 l 379 911 l 376 917 b 221 908 350 915 247 908 l 194 908 b 39 917 168 908 65 915 l 36 911 l 40 886 l 47 881 b 121 867 76 881 104 879 b 156 788 135 854 153 838 b 158 575 158 744 158 704 l 158 308 b 511 -15 158 126 251 -15 b 846 308 739 -15 846 126 l 846 575 b 850 788 846 704 847 744 b 883 867 853 839 869 854 b 958 881 900 879 929 881 l 964 886 l 968 911 z "},"Ù":{"ha":1004,"x_min":0,"x_max":0,"o":"m 633 1043 l 640 1071 l 638 1081 l 386 1219 b 338 1172 354 1218 338 1199 b 343 1146 338 1164 339 1156 l 622 1039 z m 965 917 b 817 908 939 915 843 908 l 786 908 b 646 917 760 908 672 915 l 643 911 l 647 886 l 654 881 b 728 867 683 881 713 879 b 763 788 743 854 758 839 b 767 576 767 736 767 710 l 767 347 b 511 67 767 147 671 67 b 257 347 351 67 257 147 l 257 576 b 261 788 257 710 257 736 b 294 867 264 839 281 854 b 369 881 311 879 340 881 l 375 886 l 379 911 l 376 917 b 221 908 350 915 247 908 l 194 908 b 39 917 168 908 65 915 l 36 911 l 40 886 l 47 881 b 121 867 76 881 104 879 b 156 788 135 854 153 838 b 158 575 158 744 158 704 l 158 308 b 511 -15 158 126 251 -15 b 846 308 739 -15 846 126 l 846 575 b 850 788 846 704 847 744 b 883 867 853 839 869 854 b 958 881 900 879 929 881 l 964 886 l 968 911 z "},"V":{"ha":936,"x_min":0,"x_max":0,"o":"m 436 -15 l 508 0 b 639 333 522 42 589 204 b 819 788 792 725 807 760 b 953 881 864 879 906 881 l 960 886 l 964 911 l 961 917 b 824 908 935 915 850 908 l 797 908 b 650 917 771 908 676 915 l 647 911 l 650 886 l 657 881 b 742 822 710 881 742 875 b 667 588 742 779 708 703 l 572 332 b 486 103 535 229 507 156 b 403 332 464 158 438 236 l 308 588 b 233 822 267 703 233 779 b 318 881 233 875 265 881 l 325 886 l 329 911 l 326 917 b 169 908 300 915 196 908 l 122 908 b -15 917 96 908 11 915 l -17 911 l -14 886 l -7 881 b 126 788 40 881 86 881 b 193 615 139 760 153 725 l 419 -15 z "},"W":{"ha":1522,"x_min":0,"x_max":0,"o":"m 436 -15 l 508 0 b 639 333 522 42 590 204 b 764 654 700 492 738 590 l 1006 -15 l 1022 -15 l 1094 0 b 1225 333 1108 42 1175 204 b 1406 788 1378 725 1393 760 b 1539 881 1450 879 1492 881 l 1546 886 l 1550 911 l 1547 917 b 1410 908 1521 915 1436 908 l 1383 908 b 1236 917 1357 908 1263 915 l 1233 911 l 1238 886 l 1243 881 b 1328 822 1296 881 1328 875 b 1253 588 1328 779 1294 703 l 1158 332 b 1072 103 1121 229 1093 156 b 989 332 1051 157 1024 238 l 894 588 b 825 786 863 675 836 740 b 822 806 822 792 822 799 b 919 881 822 853 878 881 l 926 886 l 931 911 l 928 917 b 768 908 901 915 794 908 l 722 908 b 597 917 696 908 624 915 l 596 911 l 599 886 l 606 881 b 718 788 675 881 696 842 b 729 758 721 778 725 769 b 667 588 714 714 693 660 l 572 332 b 486 103 535 229 507 156 b 403 332 464 158 438 236 l 308 588 b 233 822 267 703 233 779 b 318 881 233 875 265 881 l 325 886 l 329 911 l 326 917 b 169 908 300 915 196 908 l 122 908 b -15 917 96 908 11 915 l -17 911 l -14 886 l -7 881 b 126 788 40 881 86 881 b 193 615 139 760 153 725 l 419 -15 z "},"X":{"ha":919,"x_min":0,"x_max":0,"o":"m 299 864 b 381 881 315 875 343 879 l 388 886 l 388 911 l 381 917 b 226 908 329 911 268 908 l 167 908 b 44 917 126 908 88 911 l 36 911 l 36 886 l 47 881 b 133 854 85 876 113 871 b 179 801 147 843 165 821 b 413 458 261 676 353 540 b 176 131 308 310 226 194 b 6 28 117 54 89 40 l -6 18 l -6 0 l 1 -8 b 138 0 53 -1 94 0 l 203 0 b 350 -8 246 0 297 0 l 358 0 l 358 19 l 350 28 b 246 83 257 39 246 53 b 251 108 246 93 249 103 b 454 400 276 160 368 289 b 643 81 528 297 643 122 b 558 28 643 49 600 31 l 551 19 l 551 -1 l 558 -10 b 715 1 608 -4 674 1 l 771 1 b 917 -10 813 1 872 -4 l 925 -1 l 925 18 l 913 28 b 754 107 811 43 790 67 b 506 471 738 125 635 282 b 706 761 561 554 589 594 b 876 881 761 840 794 868 l 882 886 l 882 911 l 876 917 b 750 908 825 910 794 908 l 669 908 b 542 917 625 908 596 908 l 535 911 l 535 886 l 542 881 b 635 825 582 871 635 871 b 626 786 635 811 631 794 b 468 529 610 747 547 631 b 296 807 396 635 360 693 b 283 840 290 815 283 831 b 299 864 283 847 289 857 z "},"Y":{"ha":842,"x_min":0,"x_max":0,"o":"m 593 -3 l 589 22 l 582 28 b 508 42 553 28 524 29 b 474 121 493 54 478 69 b 469 318 471 164 469 186 l 469 367 b 489 436 469 394 482 425 b 692 769 538 521 583 608 b 860 881 746 850 776 868 l 865 886 l 865 911 l 860 917 b 732 908 808 910 776 908 l 651 908 b 524 917 607 908 578 908 l 518 911 l 518 886 l 524 881 b 622 832 565 871 622 878 b 608 783 622 817 613 792 b 436 461 592 742 499 568 b 244 807 367 582 311 685 b 231 840 239 815 231 831 b 247 864 231 847 238 857 b 329 881 264 875 292 879 l 335 886 l 335 911 l 329 917 b 174 906 278 911 217 906 l 115 906 b -8 917 74 906 36 911 l -15 911 l -15 886 l -4 881 b 82 854 33 876 61 871 b 126 801 94 843 114 821 b 339 454 199 690 282 554 b 372 347 354 429 372 399 l 372 293 b 368 121 372 183 371 149 b 333 42 364 69 349 54 b 260 28 318 29 289 28 l 253 22 l 250 -3 l 251 -8 b 408 0 278 -7 382 0 l 435 0 b 590 -8 461 0 564 -7 z "},"Ý":{"ha":842,"x_min":0,"x_max":0,"o":"m 343 1039 l 624 1146 b 628 1172 626 1156 628 1164 b 579 1219 628 1199 611 1218 l 329 1081 l 325 1071 l 332 1043 z m 593 -3 l 589 22 l 582 28 b 508 42 553 28 524 29 b 474 121 493 54 478 69 b 469 318 471 164 469 186 l 469 367 b 489 436 469 394 482 425 b 692 769 538 521 583 608 b 860 881 746 850 776 868 l 865 886 l 865 911 l 860 917 b 732 908 808 910 776 908 l 651 908 b 524 917 607 908 578 908 l 518 911 l 518 886 l 524 881 b 622 832 565 871 622 878 b 608 783 622 817 613 792 b 436 461 592 742 499 568 b 244 807 367 582 311 685 b 231 840 239 815 231 831 b 247 864 231 847 238 857 b 329 881 264 875 292 879 l 335 886 l 335 911 l 329 917 b 174 906 278 911 217 906 l 115 906 b -8 917 74 906 36 911 l -15 911 l -15 886 l -4 881 b 82 854 33 876 61 871 b 126 801 94 843 114 821 b 339 454 199 690 282 554 b 372 347 354 429 372 399 l 372 293 b 368 121 372 183 371 149 b 333 42 364 69 349 54 b 260 28 318 29 289 28 l 253 22 l 250 -3 l 251 -8 b 408 0 278 -7 382 0 l 435 0 b 590 -8 461 0 564 -7 z "},"Ÿ":{"ha":842,"x_min":0,"x_max":0,"o":"m 272 1153 b 329 1092 272 1118 297 1092 b 386 1153 358 1092 386 1118 b 329 1215 386 1186 358 1215 b 272 1153 297 1215 272 1186 z m 463 1153 b 518 1092 463 1118 488 1092 b 576 1153 549 1092 576 1118 b 518 1215 576 1186 549 1215 b 463 1153 488 1215 463 1186 z m 593 -3 l 589 22 l 582 28 b 508 42 553 28 524 29 b 474 121 493 54 478 69 b 469 318 471 164 469 186 l 469 367 b 489 436 469 394 482 425 b 692 769 538 521 583 608 b 860 881 746 850 776 868 l 865 886 l 865 911 l 860 917 b 732 908 808 910 776 908 l 651 908 b 524 917 607 908 578 908 l 518 911 l 518 886 l 524 881 b 622 832 565 871 622 878 b 608 783 622 817 613 792 b 436 461 592 742 499 568 b 244 807 367 582 311 685 b 231 840 239 815 231 831 b 247 864 231 847 238 857 b 329 881 264 875 292 879 l 335 886 l 335 911 l 329 917 b 174 906 278 911 217 906 l 115 906 b -8 917 74 906 36 911 l -15 911 l -15 886 l -4 881 b 82 854 33 876 61 871 b 126 801 94 843 114 821 b 339 454 199 690 282 554 b 372 347 354 429 372 399 l 372 293 b 368 121 372 183 371 149 b 333 42 364 69 349 54 b 260 28 318 29 289 28 l 253 22 l 250 -3 l 251 -8 b 408 0 278 -7 382 0 l 435 0 b 590 -8 461 0 564 -7 z "},"Z":{"ha":853,"x_min":0,"x_max":0,"o":"m 86 749 l 111 749 l 119 756 b 379 842 135 838 174 842 l 563 842 l 576 826 b 50 39 576 761 163 149 l 50 7 l 64 -8 b 207 0 111 -4 167 0 l 429 0 b 754 -8 478 0 729 -7 l 767 6 l 792 185 l 754 185 l 746 176 b 351 67 719 71 682 67 l 249 67 l 238 82 b 771 869 238 133 669 767 l 778 904 l 767 919 b 653 908 735 913 675 908 l 561 908 b 111 919 513 908 346 908 l 100 908 l 78 758 z "},"Ž":{"ha":853,"x_min":0,"x_max":0,"o":"m 88 749 l 113 749 l 119 756 b 381 842 136 838 174 842 l 564 842 l 576 826 b 50 39 576 761 164 149 l 50 7 l 64 -8 b 207 0 113 -4 168 0 l 431 0 b 756 -8 479 0 731 -7 l 767 6 l 792 185 l 756 185 l 747 176 b 353 67 721 71 682 67 l 250 67 l 239 82 b 772 869 239 133 671 767 l 779 904 l 767 919 b 653 908 735 913 676 908 l 563 908 b 113 919 514 908 347 908 l 100 908 l 79 758 z m 426 1032 l 579 1169 l 583 1179 l 575 1207 l 565 1211 l 421 1125 l 278 1211 l 267 1207 l 258 1179 l 263 1169 l 415 1032 z "},"a":{"ha":689,"x_min":0,"x_max":0,"o":"m 458 -4 b 554 0 488 -1 521 0 b 665 -6 592 0 632 -3 l 667 0 l 665 19 l 660 25 b 583 40 631 25 599 26 b 563 108 571 50 567 67 b 568 449 563 221 568 292 b 333 660 568 589 467 660 b 113 601 236 660 132 622 l 108 593 l 121 490 l 151 490 l 157 494 b 313 597 164 581 254 597 b 456 518 382 597 435 574 b 472 388 465 492 471 456 l 453 388 b 138 321 418 388 235 382 b 51 168 86 288 51 236 b 228 -15 51 71 113 -15 b 461 117 328 -15 413 50 b 450 10 458 79 456 33 z m 450 160 b 260 61 422 121 336 61 b 150 176 194 61 150 106 b 460 339 150 311 311 339 l 472 339 l 465 200 b 450 160 464 182 456 169 z "},"á":{"ha":689,"x_min":0,"x_max":0,"o":"m 458 -4 b 554 0 488 -1 521 0 b 665 -6 592 0 632 -3 l 667 0 l 665 19 l 660 25 b 583 40 631 25 599 26 b 563 108 571 50 567 67 b 568 449 563 221 568 292 b 333 660 568 589 467 660 b 113 601 236 660 132 622 l 108 593 l 121 490 l 151 490 l 157 494 b 313 597 164 581 254 597 b 456 518 382 597 435 574 b 472 388 465 492 471 456 l 453 388 b 138 321 418 388 235 382 b 51 168 86 288 51 236 b 228 -15 51 71 113 -15 b 461 117 328 -15 413 50 b 450 10 458 79 456 33 z m 450 160 b 260 61 422 121 336 61 b 150 176 194 61 150 106 b 460 339 150 311 311 339 l 472 339 l 465 200 b 450 160 464 182 456 169 z m 246 763 l 526 869 b 532 896 531 879 532 889 b 482 944 532 922 514 943 l 232 804 l 228 794 l 236 767 z "},"â":{"ha":689,"x_min":0,"x_max":0,"o":"m 458 -4 b 554 0 488 -1 521 0 b 665 -6 592 0 632 -3 l 667 0 l 665 19 l 660 25 b 583 40 631 25 599 26 b 563 108 571 50 567 67 b 568 449 563 221 568 292 b 333 660 568 589 467 660 b 113 601 236 660 132 622 l 108 593 l 121 490 l 151 490 l 157 494 b 313 597 164 581 254 597 b 456 518 382 597 435 574 b 472 388 465 492 471 456 l 453 388 b 138 321 418 388 235 382 b 51 168 86 288 51 236 b 228 -15 51 71 113 -15 b 461 117 328 -15 413 50 b 450 10 458 79 456 33 z m 450 160 b 260 61 422 121 336 61 b 150 176 194 61 150 106 b 460 339 150 311 311 339 l 472 339 l 465 200 b 450 160 464 182 456 169 z m 321 935 l 168 797 l 164 788 l 172 761 l 183 757 l 326 842 l 471 757 l 481 761 l 489 788 l 485 797 l 332 935 z "},"´":{"ha":304,"x_min":0,"x_max":0,"o":"m 18 763 l 299 869 b 304 896 303 879 304 889 b 254 944 304 922 286 943 l 4 804 l 0 794 l 8 767 z "},"ä":{"ha":689,"x_min":0,"x_max":0,"o":"m 458 -4 b 554 0 488 -1 521 0 b 665 -6 592 0 632 -3 l 667 0 l 665 19 l 660 25 b 583 40 631 25 599 26 b 563 108 571 50 567 67 b 568 449 563 221 568 292 b 333 660 568 589 467 660 b 113 601 236 660 132 622 l 108 593 l 121 490 l 151 490 l 157 494 b 313 597 164 581 254 597 b 456 518 382 597 435 574 b 472 388 465 492 471 456 l 453 388 b 138 321 418 388 235 382 b 51 168 86 288 51 236 b 228 -15 51 71 113 -15 b 461 117 328 -15 413 50 b 450 10 458 79 456 33 z m 450 160 b 260 61 422 121 336 61 b 150 176 194 61 150 106 b 460 339 150 311 311 339 l 472 339 l 465 200 b 450 160 464 182 456 169 z m 181 876 b 238 815 181 842 206 815 b 294 876 267 815 294 842 b 238 939 294 910 267 939 b 181 876 206 939 181 910 z m 371 876 b 426 815 371 842 396 815 b 485 876 457 815 485 842 b 426 939 485 910 457 939 b 371 876 396 939 371 910 z "},"æ":{"ha":1128,"x_min":0,"x_max":0,"o":"m 794 -15 b 1025 54 894 -15 981 19 l 1039 69 l 1039 94 l 1024 103 b 842 61 968 71 899 61 b 568 325 646 61 568 185 b 569 361 568 336 568 349 l 735 361 b 1043 364 835 361 943 364 l 1067 374 l 1075 407 b 788 660 1042 621 883 660 b 544 551 690 660 604 621 b 333 660 506 624 428 660 b 113 601 236 660 132 622 l 108 593 l 121 490 l 151 490 l 157 494 b 313 597 164 581 254 597 b 456 518 382 597 435 574 b 472 388 465 492 471 456 l 453 388 b 138 321 418 388 235 382 b 51 168 86 288 51 236 b 228 -15 51 71 113 -15 b 486 90 357 -15 438 40 l 518 122 b 794 -15 576 36 674 -15 z m 450 160 b 260 61 422 121 336 61 b 150 176 194 61 150 106 b 460 339 150 311 311 339 l 472 339 l 465 200 b 450 160 464 182 456 169 z m 789 597 b 951 485 874 597 931 554 b 957 456 954 476 957 467 b 926 426 957 440 950 428 b 632 418 824 421 729 418 l 578 418 b 789 597 597 515 669 597 z "},"à":{"ha":689,"x_min":0,"x_max":0,"o":"m 458 -4 b 554 0 488 -1 521 0 b 665 -6 592 0 632 -3 l 667 0 l 665 19 l 660 25 b 583 40 631 25 599 26 b 563 108 571 50 567 67 b 568 449 563 221 568 292 b 333 660 568 589 467 660 b 113 601 236 660 132 622 l 108 593 l 121 490 l 151 490 l 157 494 b 313 597 164 581 254 597 b 456 518 382 597 435 574 b 472 388 465 492 471 456 l 453 388 b 138 321 418 388 235 382 b 51 168 86 288 51 236 b 228 -15 51 71 113 -15 b 461 117 328 -15 413 50 b 450 10 458 79 456 33 z m 450 160 b 260 61 422 121 336 61 b 150 176 194 61 150 106 b 460 339 150 311 311 339 l 472 339 l 465 200 b 450 160 464 182 456 169 z m 450 767 l 457 794 l 453 804 l 203 944 b 154 896 171 943 154 922 b 158 869 154 889 156 879 l 439 763 z "},"&":{"ha":1031,"x_min":0,"x_max":0,"o":"m 981 589 l 963 600 b 871 564 939 567 906 564 b 674 575 799 564 708 575 b 542 469 586 575 542 496 l 561 460 b 632 494 576 481 589 493 b 683 336 665 442 683 390 b 649 206 683 293 671 247 b 285 632 397 471 314 567 b 263 733 271 663 263 699 b 376 850 263 794 294 850 b 499 704 446 850 489 813 l 504 699 l 550 699 l 567 797 l 563 811 b 379 921 546 893 456 921 b 167 713 256 921 167 843 b 250 514 167 643 192 592 b 67 239 135 468 67 350 b 383 -14 67 74 221 -14 b 647 75 482 -14 578 18 b 806 -14 696 28 750 -14 b 951 -8 826 -14 914 -8 l 956 -3 l 951 22 l 943 28 b 710 144 843 32 781 74 b 763 332 747 200 763 268 b 721 490 763 392 749 449 b 856 482 772 488 833 482 b 981 589 947 482 981 576 z m 592 133 b 396 60 539 86 465 60 b 167 249 289 60 167 121 b 301 451 167 324 210 424 b 592 133 401 335 499 236 z "},"å":{"ha":689,"x_min":0,"x_max":0,"o":"m 458 -4 b 554 0 488 -1 521 0 b 665 -6 592 0 632 -3 l 667 0 l 665 19 l 660 25 b 583 40 631 25 599 26 b 563 108 571 50 567 67 b 568 449 563 221 568 292 b 333 660 568 589 467 660 b 113 601 236 660 132 622 l 108 593 l 121 490 l 151 490 l 157 494 b 313 597 164 581 254 597 b 456 518 382 597 435 574 b 472 388 465 492 471 456 l 453 388 b 138 321 418 388 235 382 b 51 168 86 288 51 236 b 228 -15 51 71 113 -15 b 461 117 328 -15 413 50 b 450 10 458 79 456 33 z m 450 160 b 260 61 422 121 336 61 b 150 176 194 61 150 106 b 460 339 150 311 311 339 l 472 339 l 465 200 b 450 160 464 182 456 169 z m 358 949 b 244 847 288 949 244 899 b 360 747 244 800 282 747 b 474 844 433 747 474 796 b 358 949 474 896 431 949 z m 360 781 b 296 849 322 781 296 815 b 357 915 296 881 318 915 b 421 844 396 915 421 878 b 360 781 421 814 397 781 z "},"^":{"ha":483,"x_min":0,"x_max":0,"o":"m 236 935 l 83 797 l 79 788 l 88 761 l 97 757 l 242 842 l 386 757 l 396 761 l 404 788 l 400 797 l 247 935 z "},"~":{"ha":665,"x_min":0,"x_max":0,"o":"m 574 400 l 557 411 b 467 375 533 378 497 375 b 218 388 386 375 265 388 b 92 281 139 388 92 308 l 110 271 b 186 306 128 293 140 306 b 451 293 244 306 413 293 b 574 400 539 293 574 388 z "},"*":{"ha":574,"x_min":0,"x_max":0,"o":"m 503 675 b 322 749 422 697 390 711 b 490 825 385 782 424 799 b 492 835 490 826 490 832 b 453 900 472 861 464 878 b 446 904 450 900 447 901 b 308 785 403 860 375 836 b 322 971 308 854 310 917 b 318 975 321 972 319 972 b 279 972 304 972 294 972 b 239 975 261 972 256 972 l 235 969 b 269 785 254 900 261 857 b 124 896 164 861 144 876 l 118 894 b 76 828 107 868 96 853 l 79 818 b 244 747 151 794 158 792 b 74 671 188 717 138 694 b 72 661 74 668 72 663 b 111 597 92 638 100 622 b 118 596 114 597 115 596 b 267 708 163 635 188 654 b 246 524 258 621 256 579 l 250 519 b 289 521 267 521 275 521 b 326 519 304 521 308 521 l 332 524 b 308 707 322 568 318 600 b 458 597 376 663 413 636 b 465 599 460 597 463 599 b 506 668 474 628 483 642 z "},"@":{"ha":997,"x_min":0,"x_max":0,"o":"m 575 318 b 446 161 560 249 493 161 b 401 250 421 161 401 189 b 575 500 401 346 451 500 b 610 492 590 500 604 497 z m 822 15 l 804 29 b 496 -82 763 -8 649 -82 b 154 250 317 -82 154 17 b 563 704 154 467 296 704 b 865 413 776 704 865 551 b 694 160 865 286 794 160 b 654 199 664 160 654 172 b 660 247 654 211 657 226 l 711 494 b 575 540 681 526 619 540 b 310 268 450 540 310 433 b 426 101 310 158 371 101 b 557 204 474 101 526 142 b 658 103 557 146 568 103 b 942 418 828 103 942 254 b 564 761 942 583 825 761 b 75 250 224 761 75 461 b 482 -140 75 13 261 -140 b 799 -32 633 -140 763 -67 z "},"ã":{"ha":689,"x_min":0,"x_max":0,"o":"m 458 -4 b 554 0 488 -1 521 0 b 665 -6 592 0 632 -3 l 667 0 l 665 19 l 660 25 b 583 40 631 25 599 26 b 563 108 571 50 567 67 b 568 449 563 221 568 292 b 333 660 568 589 467 660 b 113 601 236 660 132 622 l 108 593 l 121 490 l 151 490 l 157 494 b 313 597 164 581 254 597 b 456 518 382 597 435 574 b 472 388 465 492 471 456 l 453 388 b 138 321 418 388 235 382 b 51 168 86 288 51 236 b 228 -15 51 71 113 -15 b 461 117 328 -15 413 50 b 450 10 458 79 456 33 z m 450 160 b 260 61 422 121 336 61 b 150 176 194 61 150 106 b 460 339 150 311 311 339 l 472 339 l 465 200 b 450 160 464 182 456 169 z m 574 928 l 557 939 b 467 903 532 906 497 903 b 218 915 386 903 265 915 b 92 810 139 915 92 838 l 110 799 b 186 833 128 821 140 833 b 451 821 244 833 413 821 b 574 928 539 821 574 917 z "},"b":{"ha":831,"x_min":0,"x_max":0,"o":"m 247 10 b 233 114 242 31 233 76 b 461 -15 290 21 374 -15 b 765 331 592 -15 765 79 b 460 660 765 500 671 660 b 229 528 363 660 282 606 l 229 661 b 231 908 229 818 231 849 b 242 1015 231 931 235 1000 l 233 1028 l 185 1021 b 63 1015 150 1015 93 1015 l 38 1015 l 32 1010 l 32 992 l 38 986 b 115 963 67 986 97 983 b 133 919 121 956 132 939 b 138 658 136 858 138 811 l 138 325 b 135 121 138 197 136 156 l 133 108 b 113 40 129 71 126 53 b 36 25 97 26 65 25 l 31 19 l 29 0 l 31 -6 b 174 0 57 -4 147 0 l 238 0 z m 660 328 b 450 61 660 194 596 61 b 229 244 307 61 242 185 l 229 396 b 453 581 229 454 310 581 b 660 328 594 581 660 454 z "},"\\":{"ha":600,"x_min":0,"x_max":0,"o":"m 547 -74 b 376 346 486 50 426 208 l 285 601 b 167 969 251 694 192 854 l 163 975 l 54 975 l 54 969 b 204 601 113 854 169 694 l 297 346 b 433 -74 347 208 404 50 l 438 -79 l 546 -79 z "},"|":{"ha":328,"x_min":0,"x_max":0,"o":"m 111 -158 l 217 -158 l 219 -153 b 203 267 204 -29 203 131 l 203 694 b 219 1061 203 786 203 947 l 217 1067 l 111 1067 l 110 1061 b 126 694 126 947 126 786 l 126 267 b 110 -153 126 131 125 -29 z "},"{":{"ha":376,"x_min":0,"x_max":0,"o":"m 324 1056 b 138 858 164 1056 138 975 b 140 657 138 819 140 713 b 40 461 140 586 140 465 l 40 447 b 140 256 139 443 140 329 b 138 50 140 203 138 90 b 324 -147 138 -67 164 -147 l 326 -132 b 222 24 232 -122 222 -56 b 225 222 222 58 225 174 b 94 454 225 338 197 431 b 225 686 197 478 225 571 b 222 885 225 735 222 850 b 326 1040 222 964 232 1031 z "},"}":{"ha":374,"x_min":0,"x_max":0,"o":"m 49 1040 b 154 885 143 1031 154 964 b 151 686 154 850 151 735 b 282 454 151 571 179 478 b 151 222 179 431 151 338 b 154 24 151 174 154 58 b 49 -132 154 -56 143 -122 l 51 -147 b 238 50 211 -147 238 -67 b 236 256 238 90 236 203 b 335 447 236 329 236 443 l 335 461 b 236 657 236 465 236 586 b 238 858 236 713 238 819 b 51 1056 238 975 211 1056 z "},"[":{"ha":394,"x_min":0,"x_max":0,"o":"m 361 1049 b 218 1040 335 1047 244 1040 l 113 1040 l 110 1035 b 126 668 126 921 126 760 l 126 293 b 110 -126 126 157 125 -3 l 113 -132 l 218 -132 b 361 -140 244 -132 335 -139 l 363 -135 l 360 -110 l 353 -104 b 253 -90 324 -104 268 -103 b 218 -11 238 -78 222 -62 b 214 321 215 32 214 189 l 214 669 b 218 919 214 803 214 868 b 253 999 222 971 238 986 b 353 1013 268 1011 324 1013 l 360 1018 l 363 1043 z "},"]":{"ha":394,"x_min":0,"x_max":0,"o":"m 32 1043 l 35 1018 l 42 1013 b 142 999 71 1013 126 1011 b 176 919 157 986 172 971 b 181 669 181 868 181 803 l 181 321 b 176 -11 181 189 179 32 b 142 -90 172 -62 157 -78 b 42 -104 126 -103 71 -104 l 35 -110 l 32 -135 l 33 -140 b 176 -132 60 -139 150 -132 l 282 -132 l 285 -126 b 268 293 269 -3 268 157 l 268 668 b 285 1035 268 760 268 921 l 282 1040 l 176 1040 b 33 1049 150 1040 60 1047 z "},"¦":{"ha":339,"x_min":0,"x_max":0,"o":"m 117 528 l 222 528 l 225 533 b 208 794 210 657 208 699 l 208 840 b 225 1061 208 892 208 947 l 222 1067 l 117 1067 l 115 1061 b 132 840 132 947 132 892 l 132 794 b 115 533 132 699 131 657 z m 117 -158 l 222 -158 l 225 -153 b 208 108 210 -29 208 13 l 208 153 b 225 375 208 204 208 260 l 222 381 l 117 381 l 115 375 b 132 153 132 260 132 204 l 132 108 b 115 -153 132 13 131 -29 z "},"•":{"ha":369,"x_min":0,"x_max":0,"o":"m 90 338 b 185 244 90 285 132 244 b 279 338 233 244 279 285 b 185 433 279 388 233 433 b 90 338 132 433 90 388 z "},"c":{"ha":704,"x_min":0,"x_max":0,"o":"m 619 490 l 635 597 l 631 610 b 415 660 590 632 503 660 b 60 319 219 660 60 522 b 400 -15 60 119 218 -15 b 631 54 494 -15 590 25 l 651 93 l 638 107 b 433 56 582 78 496 56 b 165 325 250 56 165 185 b 413 597 165 464 243 597 b 585 494 472 597 585 581 l 590 490 z "},"ˇ":{"ha":325,"x_min":0,"x_max":0,"o":"m 168 757 l 321 894 l 325 903 l 317 931 l 307 935 l 163 849 l 18 935 l 8 931 l 0 903 l 4 894 l 157 757 z "},"ç":{"ha":707,"x_min":0,"x_max":0,"o":"m 246 -256 b 372 -282 281 -271 328 -282 b 524 -165 460 -282 524 -226 b 414 -65 524 -108 479 -65 b 368 -71 401 -65 385 -67 l 403 -15 b 633 54 497 -15 593 25 l 654 93 l 640 107 b 436 56 585 78 499 56 b 168 325 253 56 168 185 b 415 597 168 464 246 597 b 588 494 475 597 588 581 l 593 490 l 622 490 l 638 597 l 633 610 b 418 660 593 632 506 660 b 63 319 222 660 63 522 b 354 -12 63 138 193 10 l 292 -107 l 303 -122 b 371 -112 324 -117 349 -112 b 442 -176 410 -112 442 -126 b 368 -232 442 -219 408 -232 b 272 -215 332 -232 294 -224 l 263 -215 l 244 -247 z "},"¸":{"ha":281,"x_min":0,"x_max":0,"o":"m 1 -256 b 128 -282 38 -271 83 -282 b 281 -165 215 -282 281 -226 b 171 -65 281 -108 235 -65 b 124 -71 157 -65 142 -67 l 165 0 l 118 0 l 47 -107 l 60 -122 b 126 -112 79 -117 104 -112 b 199 -176 165 -112 199 -126 b 124 -232 199 -219 164 -232 b 28 -215 89 -232 50 -224 l 18 -215 l 0 -247 z "},"¢":{"ha":704,"x_min":0,"x_max":0,"o":"m 336 -190 l 442 -190 l 444 -185 b 431 -12 438 -135 433 -74 b 624 56 517 -3 588 31 l 644 94 l 631 108 b 428 57 581 83 507 58 b 426 261 426 128 426 200 l 426 376 b 428 544 426 414 426 478 b 578 443 492 540 578 519 l 583 439 l 613 439 l 628 546 l 624 558 b 429 607 588 578 513 603 b 444 796 432 678 436 746 l 442 801 l 336 801 l 333 796 b 347 604 340 744 346 675 b 53 294 185 585 53 476 b 347 -12 53 108 189 3 b 333 -185 344 -75 340 -135 z m 158 303 b 349 542 158 422 219 521 b 350 376 350 475 350 414 l 350 261 b 347 63 350 201 349 132 b 158 303 222 88 158 179 z "},"ˆ":{"ha":325,"x_min":0,"x_max":0,"o":"m 157 935 l 4 797 l 0 788 l 8 761 l 18 757 l 163 842 l 307 757 l 317 761 l 325 788 l 321 797 l 168 935 z "},":":{"ha":315,"x_min":0,"x_max":0,"o":"m 93 49 b 157 -15 93 14 121 -15 b 224 49 192 -15 224 14 b 157 115 224 83 192 115 b 93 49 121 115 93 83 z m 93 567 b 157 501 93 531 121 501 b 224 567 192 501 224 531 b 157 632 224 601 192 632 b 93 567 121 632 93 601 z "},",":{"ha":296,"x_min":0,"x_max":0,"o":"m 88 -107 b 204 56 125 -92 204 -17 b 169 115 204 76 200 115 b 88 69 136 115 88 100 b 103 1 88 40 103 21 b 71 -93 103 -17 97 -51 l 71 -99 l 79 -107 z "},"©":{"ha":1001,"x_min":0,"x_max":0,"o":"m 601 632 l 610 625 l 647 625 l 658 694 l 657 704 b 507 731 606 725 540 731 b 264 490 347 731 264 622 b 504 256 264 351 360 256 b 650 293 554 256 604 267 l 667 332 l 654 351 b 514 306 604 314 551 306 b 344 493 418 306 344 371 b 403 651 344 558 365 618 b 503 681 428 671 463 681 b 601 632 546 681 596 669 z m 500 908 b 79 492 267 908 79 721 b 493 72 79 263 267 72 b 922 492 733 72 922 257 b 500 908 922 721 733 908 z m 500 868 b 874 492 706 868 874 699 b 494 113 874 279 707 113 b 128 492 294 113 128 283 b 500 868 128 699 294 868 z "},"¤":{"ha":822,"x_min":0,"x_max":0,"o":"m 89 38 l 129 -4 l 240 106 b 413 43 301 63 353 43 b 582 106 474 43 529 65 l 694 -4 l 738 38 l 626 149 b 686 317 668 204 686 256 b 625 488 686 379 668 431 l 735 599 l 693 639 l 581 531 b 410 592 526 574 474 592 b 238 531 347 592 296 574 l 126 640 l 85 599 l 199 488 b 136 319 153 431 136 379 b 197 149 136 256 156 200 z m 411 525 b 617 318 526 525 617 432 b 413 111 617 203 526 111 b 206 318 297 111 206 203 b 411 525 206 435 299 525 z "},"d":{"ha":831,"x_min":0,"x_max":0,"o":"m 593 -4 b 688 0 622 -1 654 0 b 799 -6 726 0 765 -3 l 801 0 l 799 19 l 793 25 b 717 40 764 25 733 26 b 697 108 706 50 701 67 b 692 358 694 174 692 201 l 692 661 b 694 908 692 818 694 849 b 704 1015 694 931 697 1000 l 696 1028 l 647 1021 b 525 1015 613 1015 556 1015 l 500 1015 l 494 1010 l 494 992 l 500 986 b 578 963 529 986 560 983 b 596 919 583 956 594 939 b 600 658 600 860 600 811 l 600 529 b 368 660 543 624 457 660 b 65 314 238 660 65 565 b 369 -15 65 144 158 -15 b 596 115 467 -15 544 38 b 583 10 593 79 590 33 z m 171 317 b 381 583 171 450 233 583 b 600 396 525 583 592 454 l 600 242 b 378 64 596 182 515 64 b 171 317 235 64 171 190 z "},"†":{"ha":653,"x_min":0,"x_max":0,"o":"m 267 151 l 386 151 l 389 157 b 372 576 374 281 372 440 l 372 603 l 385 603 b 594 586 442 603 471 601 l 600 589 l 600 685 l 594 688 b 385 671 471 672 442 671 l 372 671 b 389 956 374 763 376 876 l 386 961 l 267 961 l 264 956 b 281 671 275 869 279 760 l 267 671 b 57 688 211 671 182 672 l 53 685 l 53 589 l 57 586 b 267 603 182 601 211 603 l 281 603 l 281 576 b 264 157 281 440 279 281 z "},"‡":{"ha":696,"x_min":0,"x_max":0,"o":"m 289 -99 l 408 -99 l 411 -93 b 394 192 400 -10 396 93 l 407 192 b 617 174 464 192 493 190 l 622 176 l 622 274 l 617 276 b 407 258 493 260 464 258 l 394 258 l 394 603 l 407 603 b 617 586 464 603 493 601 l 622 589 l 622 685 l 617 688 b 407 671 493 672 464 671 l 394 671 b 411 956 396 763 399 876 l 408 961 l 289 961 l 286 956 b 303 671 297 869 301 760 l 289 671 b 79 688 233 671 204 672 l 75 685 l 75 589 l 79 586 b 289 603 204 601 233 603 l 303 603 l 303 258 l 289 258 b 79 276 233 258 204 260 l 75 274 l 75 176 l 79 174 b 289 192 204 190 233 192 l 301 192 b 286 -93 300 93 296 -10 z "},"°":{"ha":453,"x_min":0,"x_max":0,"o":"m 225 914 b 57 754 117 914 57 842 b 225 596 57 672 107 596 b 396 750 342 596 396 668 b 225 914 396 839 338 914 z m 225 638 b 115 756 153 638 115 692 b 224 868 115 815 147 868 b 335 750 299 868 335 813 b 225 638 335 686 299 638 z "},"¨":{"ha":306,"x_min":0,"x_max":0,"o":"m 0 876 b 57 815 0 842 25 815 b 115 876 88 815 115 842 b 57 939 115 910 88 939 b 0 876 25 939 0 910 z m 190 876 b 247 815 190 842 215 815 b 306 876 278 815 306 842 b 247 939 306 910 278 939 b 190 876 215 939 190 910 z "},"÷":{"ha":781,"x_min":0,"x_max":0,"o":"m 118 368 l 104 296 l 667 296 l 679 368 z m 342 111 b 407 46 342 75 371 46 b 472 111 440 46 472 75 b 407 176 472 146 440 176 b 342 111 371 176 342 146 z m 342 551 b 407 488 342 517 371 488 b 472 551 440 488 472 517 b 407 618 472 586 440 618 b 342 551 371 618 342 586 z "},"$":{"ha":735,"x_min":0,"x_max":0,"o":"m 329 -133 l 414 -133 l 417 -129 b 407 6 413 -87 408 -42 b 681 251 558 18 681 90 b 407 525 681 422 546 483 b 403 526 406 525 404 525 l 403 685 b 404 840 403 726 403 781 b 557 733 471 835 550 811 l 563 726 l 601 726 l 621 844 l 615 860 b 406 904 567 881 490 900 b 417 1038 408 950 411 997 l 414 1042 l 329 1042 l 326 1038 b 336 904 331 997 335 950 b 78 678 186 896 78 832 b 336 431 78 535 189 474 b 340 429 338 429 339 429 l 340 275 b 338 65 340 207 340 136 b 129 221 211 69 138 119 l 122 228 l 88 228 l 64 88 l 69 68 b 336 3 140 32 229 4 b 326 -129 333 -43 331 -89 z m 403 410 b 574 233 496 378 574 335 b 404 67 574 144 519 81 b 403 275 403 138 403 208 z m 179 694 b 339 840 179 781 238 832 b 340 685 340 782 340 726 l 340 546 b 179 694 229 581 179 611 z "},"ı":{"ha":385,"x_min":0,"x_max":0,"o":"m 354 0 l 351 18 l 344 25 b 272 40 317 25 288 28 b 251 108 258 53 254 69 b 246 243 249 147 246 163 l 246 399 b 249 528 246 479 249 497 b 258 632 249 550 251 617 l 250 644 l 201 638 b 79 632 167 632 110 632 l 54 632 l 49 628 l 49 608 l 54 603 b 132 579 83 603 114 601 b 150 536 138 574 147 556 b 154 397 153 499 154 475 l 154 226 b 150 108 154 160 153 139 b 129 40 146 71 143 53 b 53 25 114 26 82 25 l 47 19 l 46 0 l 47 -6 b 190 0 74 -4 164 0 l 210 0 b 351 -6 236 0 325 -4 z "},"e":{"ha":729,"x_min":0,"x_max":0,"o":"m 676 407 b 388 660 643 621 485 660 b 64 319 207 660 64 522 b 394 -15 64 121 200 -15 b 625 54 494 -15 581 19 l 639 69 l 639 94 l 625 103 b 442 61 569 71 499 61 b 169 325 247 61 169 185 b 171 361 169 336 169 349 l 335 361 b 644 364 436 361 544 364 l 667 374 z m 389 597 b 551 485 474 597 531 554 b 557 456 554 476 557 467 b 526 426 557 440 550 428 b 232 418 424 421 331 418 l 178 418 b 389 597 197 515 271 597 z "},"é":{"ha":729,"x_min":0,"x_max":0,"o":"m 676 407 b 388 660 643 621 485 660 b 64 319 207 660 64 522 b 394 -15 64 121 200 -15 b 625 54 494 -15 581 19 l 639 69 l 639 94 l 625 103 b 442 61 569 71 499 61 b 169 325 247 61 169 185 b 171 361 169 336 169 349 l 335 361 b 644 364 436 361 544 364 l 667 374 z m 389 597 b 551 485 474 597 531 554 b 557 456 554 476 557 467 b 526 426 557 440 550 428 b 232 418 424 421 331 418 l 178 418 b 389 597 197 515 271 597 z m 286 763 l 567 869 b 571 896 571 879 571 889 b 522 944 571 922 554 943 l 272 804 l 268 794 l 276 767 z "},"ê":{"ha":729,"x_min":0,"x_max":0,"o":"m 676 407 b 388 660 643 621 485 660 b 64 319 207 660 64 522 b 394 -15 64 121 200 -15 b 625 54 494 -15 581 19 l 639 69 l 639 94 l 625 103 b 442 61 569 71 499 61 b 169 325 247 61 169 185 b 171 361 169 336 169 349 l 335 361 b 644 364 436 361 544 364 l 667 374 z m 389 597 b 551 485 474 597 531 554 b 557 456 554 476 557 467 b 526 426 557 440 550 428 b 232 418 424 421 331 418 l 178 418 b 389 597 197 515 271 597 z m 378 935 l 224 797 l 221 788 l 228 761 l 239 757 l 383 842 l 526 757 l 538 761 l 544 788 l 542 797 l 388 935 z "},"ë":{"ha":729,"x_min":0,"x_max":0,"o":"m 676 407 b 388 660 643 621 485 660 b 64 319 207 660 64 522 b 394 -15 64 121 200 -15 b 625 54 494 -15 581 19 l 639 69 l 639 94 l 625 103 b 442 61 569 71 499 61 b 169 325 247 61 169 185 b 171 361 169 336 169 349 l 335 361 b 644 364 436 361 544 364 l 667 374 z m 389 597 b 551 485 474 597 531 554 b 557 456 554 476 557 467 b 526 426 557 440 550 428 b 232 418 424 421 331 418 l 178 418 b 389 597 197 515 271 597 z m 228 876 b 285 815 228 842 253 815 b 343 876 315 815 343 842 b 285 939 343 910 315 939 b 228 876 253 939 228 910 z m 418 876 b 475 815 418 842 443 815 b 533 876 506 815 533 842 b 475 939 533 910 506 939 b 418 876 443 939 418 910 z "},"è":{"ha":729,"x_min":0,"x_max":0,"o":"m 676 407 b 388 660 643 621 485 660 b 64 319 207 660 64 522 b 394 -15 64 121 200 -15 b 625 54 494 -15 581 19 l 639 69 l 639 94 l 625 103 b 442 61 569 71 499 61 b 169 325 247 61 169 185 b 171 361 169 336 169 349 l 335 361 b 644 364 436 361 544 364 l 667 374 z m 389 597 b 551 485 474 597 531 554 b 557 456 554 476 557 467 b 526 426 557 440 550 428 b 232 418 424 421 331 418 l 178 418 b 389 597 197 515 271 597 z m 492 767 l 499 794 l 494 804 l 244 944 b 196 896 213 943 196 922 b 200 869 196 889 197 879 l 481 763 z "},"…":{"ha":826,"x_min":0,"x_max":0,"o":"m 86 49 b 150 -15 86 14 114 -15 b 217 49 185 -15 217 14 b 150 115 217 83 185 115 b 86 49 114 115 86 83 z m 349 49 b 413 -15 349 14 378 -15 b 479 49 447 -15 479 14 b 413 115 479 83 447 115 b 349 49 378 115 349 83 z m 611 49 b 675 -15 611 14 640 -15 b 742 49 710 -15 742 14 b 675 115 742 83 710 115 b 611 49 640 115 611 83 z "},"—":{"ha":1092,"x_min":0,"x_max":0,"o":"m 107 368 l 93 296 l 986 296 l 999 368 z "},"–":{"ha":761,"x_min":0,"x_max":0,"o":"m 107 368 l 93 296 l 656 296 l 668 368 z "},"=":{"ha":678,"x_min":0,"x_max":0,"o":"m 117 263 l 104 190 l 560 190 l 574 263 z m 117 474 l 104 401 l 560 401 l 574 474 z "},"ð":{"ha":811,"x_min":0,"x_max":0,"o":"m 611 564 b 396 660 553 632 469 660 b 64 322 182 660 64 504 b 399 -15 64 153 164 -15 b 725 404 639 -15 725 182 b 606 861 725 574 682 740 l 740 915 l 711 963 l 572 907 b 399 1028 524 968 464 1010 l 375 989 b 500 881 407 976 474 939 l 346 817 l 375 769 l 528 831 b 615 565 572 758 611 668 z m 397 39 b 168 325 246 39 168 189 b 392 599 168 460 231 599 b 621 328 535 599 621 497 b 397 39 621 189 554 39 z "},"!":{"ha":342,"x_min":0,"x_max":0,"o":"m 226 953 l 113 917 l 107 904 b 138 213 111 847 125 761 l 146 207 l 194 229 l 201 239 b 232 908 215 818 228 849 b 233 949 232 917 233 932 z m 104 49 b 169 -15 104 14 133 -15 b 235 49 203 -15 235 14 b 169 115 235 83 203 115 b 104 49 133 115 104 83 z "},"¡":{"ha":324,"x_min":0,"x_max":0,"o":"m 96 596 b 161 529 96 561 125 529 b 226 596 194 529 226 561 b 161 660 226 631 194 660 b 96 596 125 660 96 631 z m 225 -304 b 224 -264 225 -287 224 -272 b 193 406 219 -204 207 -174 l 186 414 l 138 438 l 129 432 b 99 -260 117 -117 103 -203 l 104 -272 l 218 -308 z "},"f":{"ha":467,"x_min":0,"x_max":0,"o":"m 435 581 l 435 626 l 428 632 l 251 632 l 251 779 b 358 967 251 872 251 967 b 479 872 418 967 472 931 l 515 872 l 532 979 l 525 993 b 378 1035 471 1022 421 1035 b 160 711 236 1035 160 908 l 160 632 l 57 632 l 51 626 l 51 581 l 57 574 l 160 574 l 160 325 b 135 40 160 97 158 63 b 58 25 119 26 88 25 l 53 19 l 51 0 l 53 -6 b 197 0 79 -4 171 0 l 231 0 b 383 -6 257 0 357 -4 l 386 0 l 383 18 l 376 25 b 278 40 354 25 297 26 b 257 108 263 53 260 81 b 251 358 253 160 251 201 l 251 574 l 428 574 z "},"ƒ":{"ha":483,"x_min":0,"x_max":0,"o":"m 289 574 l 465 574 l 474 581 l 482 626 l 478 632 l 300 632 l 332 779 b 478 967 351 872 371 967 b 572 872 536 967 572 931 l 608 872 l 647 979 l 642 993 b 506 1035 594 1022 547 1035 b 218 711 363 1035 261 908 l 201 632 l 99 632 l 90 626 l 81 581 l 86 574 l 189 574 l 100 128 b -93 -287 71 -14 32 -287 b -126 -279 -104 -287 -115 -285 l -149 -279 l -175 -349 b -128 -361 -156 -360 -140 -361 b 164 -6 15 -361 128 -175 z "},"⁴":{"ha":453,"x_min":0,"x_max":0,"o":"m 54 583 l 249 583 b 174 432 249 469 249 432 l 169 415 b 253 418 183 415 239 418 l 306 418 b 382 415 319 418 368 415 l 379 432 b 310 583 311 432 310 467 l 349 583 l 360 628 l 310 628 b 315 917 310 858 313 888 l 306 924 l 225 913 l 39 608 l 47 588 z m 246 861 b 249 628 247 824 249 764 l 108 628 z "},"g":{"ha":682,"x_min":0,"x_max":0,"o":"m 653 581 l 653 626 l 646 632 l 442 632 b 319 658 407 649 368 658 b 69 408 158 658 69 546 b 211 189 69 313 111 226 b 119 94 161 167 119 143 b 186 17 119 57 146 33 b 49 -154 107 -12 49 -76 b 332 -344 49 -250 133 -344 b 568 -275 443 -344 519 -315 b 640 -121 617 -233 640 -175 b 422 67 640 -7 544 53 l 310 81 b 231 119 254 88 231 101 b 278 174 231 135 247 161 b 322 172 292 174 307 172 b 578 401 497 172 578 279 b 515 574 578 463 556 525 l 646 574 z m 325 231 b 168 414 214 231 168 325 b 317 597 168 500 210 597 b 476 401 428 597 476 493 b 325 231 476 311 428 231 z m 363 -14 b 549 -135 449 -24 549 -47 b 340 -258 549 -215 461 -258 b 135 -139 208 -258 135 -208 b 292 -7 135 -79 188 -11 z "},"ß":{"ha":794,"x_min":0,"x_max":0,"o":"m 157 632 l 57 632 l 51 626 l 51 581 l 57 574 l 157 574 l 157 325 b 132 40 157 97 156 61 b 58 25 115 25 89 25 l 53 19 l 51 0 l 53 -6 b 192 0 78 -4 167 0 l 229 0 b 354 -6 254 0 329 -4 l 357 0 l 354 18 l 347 25 b 251 108 303 25 257 32 b 247 358 249 150 247 285 l 247 674 b 399 954 247 806 261 954 b 540 829 486 954 540 892 b 399 519 540 729 399 654 b 656 176 399 336 656 372 b 540 42 656 93 607 42 b 432 185 468 42 432 101 l 428 190 l 404 190 l 388 47 l 390 35 b 543 -15 424 11 483 -15 b 749 196 625 -15 749 35 b 478 568 749 435 478 443 b 625 840 478 658 625 714 b 406 1022 625 932 543 1022 b 157 672 236 1022 157 882 z "},"`":{"ha":304,"x_min":0,"x_max":0,"o":"m 296 767 l 304 794 l 300 804 l 49 944 b 0 896 17 943 0 922 b 6 869 0 889 1 879 l 285 763 z "},">":{"ha":578,"x_min":0,"x_max":0,"o":"m 407 331 b 104 140 314 265 204 199 l 104 131 l 117 78 l 122 72 b 518 331 250 165 386 254 l 518 338 b 122 596 386 414 250 503 l 117 590 l 104 538 l 104 528 b 407 338 204 471 314 403 z "},"«":{"ha":647,"x_min":0,"x_max":0,"o":"m 331 585 l 250 585 l 240 579 b 57 333 196 510 150 450 b 240 89 150 218 196 158 l 250 83 l 331 83 l 338 97 b 143 333 257 179 203 250 b 338 571 203 418 257 489 z m 556 585 l 475 585 l 464 579 b 281 333 421 510 375 450 b 464 89 375 218 421 158 l 475 83 l 556 83 l 563 97 b 368 333 482 179 428 250 b 563 571 428 418 482 489 z "},"»":{"ha":647,"x_min":0,"x_max":0,"o":"m 85 571 b 278 333 165 489 218 418 b 85 97 218 250 165 179 l 90 83 l 171 83 l 182 89 b 365 333 225 158 272 218 b 182 579 272 450 225 510 l 171 585 l 90 585 z m 308 571 b 503 333 389 489 443 418 b 308 97 443 250 389 179 l 315 83 l 396 83 l 406 89 b 590 333 450 158 496 218 b 406 579 496 450 450 510 l 396 585 l 315 585 z "},"‹":{"ha":422,"x_min":0,"x_max":0,"o":"m 331 585 l 250 585 l 240 579 b 57 333 196 510 150 450 b 240 89 150 218 196 158 l 250 83 l 331 83 l 338 97 b 143 333 257 179 203 250 b 338 571 203 418 257 489 z "},"›":{"ha":422,"x_min":0,"x_max":0,"o":"m 85 571 b 278 333 165 489 218 418 b 85 97 218 250 165 179 l 90 83 l 171 83 l 182 89 b 365 333 225 158 272 218 b 182 579 272 450 225 510 l 171 585 l 90 585 z "},"h":{"ha":828,"x_min":0,"x_max":0,"o":"m 601 -4 b 697 0 631 -1 664 0 b 807 -6 735 0 775 -3 l 810 0 l 807 19 l 803 25 b 725 40 774 25 742 26 b 704 114 714 50 704 72 l 704 310 b 699 468 704 349 704 419 b 467 660 683 600 572 660 b 229 514 351 660 276 596 l 229 661 b 233 908 229 818 233 849 b 242 1015 233 931 235 1000 l 233 1028 l 185 1021 b 63 1015 150 1015 93 1015 l 38 1015 l 32 1010 l 32 992 l 38 986 b 115 963 67 986 97 983 b 133 919 121 956 132 939 b 138 658 136 860 138 811 l 138 325 b 133 108 138 197 136 156 b 113 40 131 71 126 53 b 36 25 97 26 65 25 l 31 19 l 29 0 l 31 -6 b 174 0 57 -4 147 0 l 193 0 b 335 -6 219 0 308 -4 l 338 0 l 335 18 l 328 25 b 256 40 300 25 271 28 b 235 108 242 53 239 69 b 229 400 232 174 229 201 b 442 581 229 457 318 581 b 599 451 517 581 581 538 b 610 317 607 414 610 358 b 604 108 610 267 608 185 b 592 10 603 79 599 33 z "},"-":{"ha":654,"x_min":0,"x_max":0,"o":"m 106 368 l 93 296 l 549 296 l 563 368 z "},"i":{"ha":385,"x_min":0,"x_max":0,"o":"m 354 0 l 351 18 l 344 25 b 272 40 317 25 288 28 b 251 108 258 53 254 69 b 246 243 249 147 246 163 l 246 399 b 249 528 246 479 249 497 b 258 632 249 550 251 617 l 250 644 l 201 638 b 79 632 167 632 110 632 l 54 632 l 49 628 l 49 608 l 54 603 b 132 579 83 603 114 601 b 150 536 138 574 147 556 b 154 397 153 499 154 475 l 154 226 b 150 108 154 160 153 139 b 129 40 146 71 143 53 b 53 25 114 26 82 25 l 47 19 l 46 0 l 47 -6 b 190 0 74 -4 164 0 l 210 0 b 351 -6 236 0 325 -4 z m 118 876 b 183 811 118 840 147 811 b 251 876 219 811 251 840 b 183 944 251 913 219 944 b 118 876 147 944 118 913 z "},"í":{"ha":385,"x_min":0,"x_max":0,"o":"m 354 0 l 351 18 l 344 25 b 272 40 317 25 288 28 b 251 108 258 53 254 69 b 246 243 249 147 246 163 l 246 399 b 249 528 246 479 249 497 b 258 632 249 550 251 617 l 250 644 l 201 638 b 79 632 167 632 110 632 l 54 632 l 49 628 l 49 608 l 54 603 b 132 579 83 603 114 601 b 150 536 138 574 147 556 b 154 397 153 499 154 475 l 154 226 b 150 108 154 160 153 139 b 129 40 146 71 143 53 b 53 25 114 26 82 25 l 47 19 l 46 0 l 47 -6 b 190 0 74 -4 164 0 l 210 0 b 351 -6 236 0 325 -4 z m 76 763 l 357 869 b 363 896 361 879 363 889 b 313 944 363 922 344 943 l 63 804 l 58 794 l 67 767 z "},"î":{"ha":385,"x_min":0,"x_max":0,"o":"m 354 0 l 351 18 l 344 25 b 272 40 317 25 288 28 b 251 108 258 53 254 69 b 246 243 249 147 246 163 l 246 399 b 249 528 246 479 249 497 b 258 632 249 550 251 617 l 250 644 l 201 638 b 79 632 167 632 110 632 l 54 632 l 49 628 l 49 608 l 54 603 b 132 579 83 603 114 601 b 150 536 138 574 147 556 b 154 397 153 499 154 475 l 154 226 b 150 108 154 160 153 139 b 129 40 146 71 143 53 b 53 25 114 26 82 25 l 47 19 l 46 0 l 47 -6 b 190 0 74 -4 164 0 l 210 0 b 351 -6 236 0 325 -4 z m 181 935 l 28 797 l 24 788 l 32 761 l 43 757 l 186 842 l 331 757 l 340 761 l 349 788 l 344 797 l 192 935 z "},"ï":{"ha":385,"x_min":0,"x_max":0,"o":"m 354 0 l 351 18 l 344 25 b 272 40 317 25 288 28 b 251 108 258 53 254 69 b 246 243 249 147 246 163 l 246 399 b 249 528 246 479 249 497 b 258 632 249 550 251 617 l 250 644 l 201 638 b 79 632 167 632 110 632 l 54 632 l 49 628 l 49 608 l 54 603 b 132 579 83 603 114 601 b 150 536 138 574 147 556 b 154 397 153 499 154 475 l 154 226 b 150 108 154 160 153 139 b 129 40 146 71 143 53 b 53 25 114 26 82 25 l 47 19 l 46 0 l 47 -6 b 190 0 74 -4 164 0 l 210 0 b 351 -6 236 0 325 -4 z m 33 876 b 90 815 33 842 58 815 b 149 876 121 815 149 842 b 90 939 149 910 121 939 b 33 876 58 939 33 910 z m 224 876 b 281 815 224 842 249 815 b 339 876 311 815 339 842 b 281 939 339 910 311 939 b 224 876 249 939 224 910 z "},"ì":{"ha":385,"x_min":0,"x_max":0,"o":"m 354 0 l 351 18 l 344 25 b 272 40 317 25 288 28 b 251 108 258 53 254 69 b 246 243 249 147 246 163 l 246 399 b 249 528 246 479 249 497 b 258 632 249 550 251 617 l 250 644 l 201 638 b 79 632 167 632 110 632 l 54 632 l 49 628 l 49 608 l 54 603 b 132 579 83 603 114 601 b 150 536 138 574 147 556 b 154 397 153 499 154 475 l 154 226 b 150 108 154 160 153 139 b 129 40 146 71 143 53 b 53 25 114 26 82 25 l 47 19 l 46 0 l 47 -6 b 190 0 74 -4 164 0 l 210 0 b 351 -6 236 0 325 -4 z m 278 767 l 286 794 l 282 804 l 31 944 b -18 896 -1 943 -18 922 b -12 869 -18 889 -17 879 l 267 763 z "},"j":{"ha":347,"x_min":0,"x_max":0,"o":"m 32 608 l 38 603 b 115 579 67 603 97 601 b 133 535 121 574 132 556 b 138 283 138 471 138 321 b 133 -86 138 246 135 -50 b 82 -292 132 -174 124 -247 b -10 -325 54 -322 28 -325 l -15 -332 l -12 -358 l -1 -361 b 49 -357 17 -361 31 -361 b 229 -6 167 -322 229 -179 l 229 322 b 232 525 229 450 231 492 b 240 632 233 550 235 617 l 233 644 l 185 638 b 63 632 150 632 93 632 l 38 632 l 32 628 z m 101 876 b 167 811 101 840 131 811 b 235 876 203 811 235 840 b 167 944 235 913 203 944 b 101 876 131 944 101 913 z "},"k":{"ha":731,"x_min":0,"x_max":0,"o":"m 32 992 l 38 986 b 115 963 67 986 97 983 b 133 919 121 956 132 939 b 138 658 136 860 138 811 l 138 325 b 133 108 138 197 136 156 b 113 40 131 71 126 53 b 36 25 97 26 65 25 l 31 19 l 29 0 l 31 -6 b 174 0 57 -4 147 0 l 193 0 b 335 -6 219 0 308 -4 l 338 0 l 335 18 l 328 25 b 256 40 300 25 271 28 b 235 108 242 53 236 69 b 229 260 232 160 229 188 b 293 324 243 274 253 286 b 360 244 314 303 328 286 l 471 101 b 543 25 501 64 538 31 b 617 -10 565 3 589 -10 b 728 -6 656 -10 696 -10 l 731 0 l 728 19 l 724 25 b 542 167 640 31 593 103 l 418 319 b 367 390 389 354 375 378 l 424 443 b 597 586 472 490 543 553 b 665 606 617 599 647 601 l 672 613 l 672 632 l 668 638 b 560 629 632 633 594 629 l 521 629 b 414 638 485 629 449 633 l 408 632 l 408 615 l 414 610 b 478 576 442 606 478 599 b 465 551 478 571 474 561 b 394 483 456 539 403 492 l 229 331 l 229 661 b 233 908 229 818 233 849 b 242 1015 233 931 235 1000 l 233 1028 l 185 1021 b 63 1015 150 1015 93 1015 l 38 1015 l 32 1010 z "},"l":{"ha":382,"x_min":0,"x_max":0,"o":"m 40 992 l 46 986 b 124 963 75 986 106 983 b 142 919 129 956 140 939 b 146 658 146 860 146 811 l 146 325 b 142 108 146 197 144 156 b 121 40 139 71 135 53 b 44 25 106 26 74 25 l 39 19 l 38 0 l 39 -6 b 182 0 65 -4 156 0 l 201 0 b 343 -6 228 0 317 -4 l 346 0 l 343 18 l 336 25 b 264 40 308 25 279 28 b 243 108 250 53 247 69 b 238 358 240 174 238 201 l 238 661 b 242 908 238 818 238 849 b 251 1015 243 931 244 1000 l 243 1028 l 193 1021 b 71 1015 158 1015 101 1015 l 46 1015 l 40 1010 z "},"<":{"ha":578,"x_min":0,"x_max":0,"o":"m 171 338 b 474 528 264 403 374 471 l 474 538 l 461 590 l 456 596 b 60 338 328 503 192 414 l 60 331 b 456 72 192 254 328 165 l 461 78 l 474 131 l 474 140 b 171 331 374 199 264 265 z "},"¬":{"ha":875,"x_min":0,"x_max":0,"o":"m 104 474 l 104 401 l 697 401 l 697 163 l 771 163 l 771 474 z "},"m":{"ha":1282,"x_min":0,"x_max":0,"o":"m 49 608 l 54 603 b 132 579 83 603 114 601 b 150 536 138 574 147 556 b 154 397 153 499 154 475 l 154 226 b 150 108 154 160 153 139 b 129 40 146 71 143 53 b 53 25 114 26 82 25 l 47 19 l 46 0 l 47 -6 b 190 0 74 -4 164 0 l 210 0 b 351 -6 236 0 325 -4 l 354 0 l 351 18 l 344 25 b 272 40 317 25 288 28 b 251 108 258 53 254 69 b 246 243 249 147 246 163 l 246 399 b 450 581 246 458 328 581 b 601 465 521 581 581 540 b 613 324 613 426 613 361 b 607 108 613 285 610 163 b 588 40 604 71 601 53 b 511 25 572 26 540 25 l 506 19 l 503 0 l 506 -6 b 649 0 532 -4 622 0 l 668 0 b 810 -6 694 0 783 -4 l 813 0 l 810 18 l 803 25 b 731 40 775 25 746 28 b 708 108 715 53 708 69 l 708 310 b 704 432 708 350 708 392 b 901 581 726 494 799 581 b 1053 465 972 581 1035 540 b 1064 324 1061 426 1064 361 b 1060 108 1064 285 1063 163 b 1047 10 1058 79 1054 33 l 1057 -4 b 1151 0 1086 -1 1118 0 b 1263 -6 1190 0 1229 -3 l 1265 0 l 1263 19 l 1257 25 b 1181 40 1228 25 1196 26 b 1160 108 1168 50 1160 67 l 1160 310 b 1151 467 1160 363 1160 418 b 918 660 1128 603 1025 660 b 690 503 794 660 735 585 b 467 660 657 614 563 660 b 249 521 353 660 290 596 b 250 525 249 522 250 524 b 258 632 250 547 251 617 l 250 644 l 201 638 b 79 632 167 632 110 632 l 54 632 l 49 628 z "},"µ":{"ha":886,"x_min":0,"x_max":0,"o":"m 196 -174 b 228 57 210 -118 217 -60 l 232 60 b 401 -15 256 3 349 -15 b 632 119 510 -15 583 42 b 619 10 628 79 625 33 l 628 -4 b 724 0 657 -1 690 0 b 835 -6 761 0 801 -3 l 838 0 l 835 19 l 829 25 b 753 40 800 25 768 26 b 732 108 740 50 736 67 b 728 243 731 147 728 163 l 728 399 b 731 525 728 479 731 494 b 739 632 731 547 732 617 l 731 644 l 682 638 b 561 632 649 632 592 632 l 536 632 l 531 628 l 531 608 l 536 603 b 614 579 565 603 596 601 b 631 536 619 574 628 556 b 636 397 635 499 636 475 l 636 217 b 426 51 621 154 540 51 b 269 181 351 51 288 94 b 258 315 261 218 258 275 b 263 525 258 365 263 463 b 271 632 263 547 264 617 l 263 644 l 214 638 b 92 632 179 632 122 632 l 67 632 l 63 628 l 63 608 l 67 603 b 144 581 96 603 126 601 b 160 536 150 574 158 556 b 164 329 161 511 164 401 l 164 193 b 88 -139 164 119 136 -43 l 88 -147 b 176 -182 103 -169 133 -182 l 189 -182 z "},"×":{"ha":638,"x_min":0,"x_max":0,"o":"m 486 111 l 538 163 l 368 332 l 538 500 l 486 551 l 317 383 l 150 550 l 99 499 l 265 332 l 99 164 l 150 113 l 317 281 z "},"n":{"ha":844,"x_min":0,"x_max":0,"o":"m 354 0 l 351 18 l 344 25 b 272 40 317 25 288 28 b 251 108 258 53 256 69 b 246 243 247 147 246 163 l 246 400 b 458 581 246 461 335 581 b 615 451 533 581 597 538 b 626 317 624 414 626 358 b 621 108 626 267 625 185 b 608 10 619 79 615 33 l 618 -4 b 714 0 647 -1 681 0 b 824 -6 751 0 792 -3 l 826 0 l 824 19 l 819 25 b 742 40 790 25 758 26 b 722 108 731 50 726 67 b 721 310 722 175 721 243 b 715 467 721 363 721 418 b 483 660 699 601 589 660 b 249 519 371 660 296 599 b 258 632 250 549 247 597 l 250 644 l 201 638 b 79 632 167 632 110 632 l 54 632 l 49 628 l 49 608 l 54 603 b 132 579 83 603 114 601 b 150 536 138 574 147 556 b 154 397 154 499 154 475 l 154 226 b 150 108 154 160 153 139 b 129 40 146 71 143 53 b 53 25 114 26 82 25 l 47 19 l 46 0 l 47 -6 b 190 0 74 -4 164 0 l 210 0 b 351 -6 236 0 325 -4 z "},"ñ":{"ha":844,"x_min":0,"x_max":0,"o":"m 354 0 l 351 18 l 344 25 b 272 40 317 25 288 28 b 251 108 258 53 256 69 b 246 243 247 147 246 163 l 246 400 b 458 581 246 461 335 581 b 615 451 533 581 597 538 b 626 317 624 414 626 358 b 621 108 626 267 625 185 b 608 10 619 79 615 33 l 618 -4 b 714 0 647 -1 681 0 b 824 -6 751 0 792 -3 l 826 0 l 824 19 l 819 25 b 742 40 790 25 758 26 b 722 108 731 50 726 67 b 721 310 722 175 721 243 b 715 467 721 363 721 418 b 483 660 699 601 589 660 b 249 519 371 660 296 599 b 258 632 250 549 247 597 l 250 644 l 201 638 b 79 632 167 632 110 632 l 54 632 l 49 628 l 49 608 l 54 603 b 132 579 83 603 114 601 b 150 536 138 574 147 556 b 154 397 154 499 154 475 l 154 226 b 150 108 154 160 153 139 b 129 40 146 71 143 53 b 53 25 114 26 82 25 l 47 19 l 46 0 l 47 -6 b 190 0 74 -4 164 0 l 210 0 b 351 -6 236 0 325 -4 z m 663 928 l 646 939 b 556 903 622 906 586 903 b 308 915 475 903 354 915 b 181 810 229 915 181 838 l 200 799 b 276 833 217 821 231 833 b 540 821 335 833 501 821 b 663 928 629 821 663 917 z "},"#":{"ha":860,"x_min":0,"x_max":0,"o":"m 407 0 l 513 0 l 517 6 b 564 308 525 94 543 203 l 750 308 l 763 382 l 581 382 l 615 547 l 793 547 l 806 619 l 631 619 b 708 903 650 708 678 817 l 706 908 l 600 908 l 597 903 b 553 619 590 817 571 708 l 367 619 b 444 903 386 708 414 817 l 442 908 l 336 908 l 333 903 b 289 619 326 817 307 708 l 108 619 l 96 547 l 274 547 l 239 382 l 68 382 l 56 308 l 222 308 b 142 6 199 203 172 94 l 143 0 l 249 0 l 253 6 b 300 308 261 94 279 203 l 486 308 b 406 6 463 203 436 94 z m 350 547 l 538 547 l 503 382 l 317 382 z "},"o":{"ha":810,"x_min":0,"x_max":0,"o":"m 404 660 b 63 322 190 660 63 504 b 407 -15 63 153 172 -15 b 747 315 635 -15 747 146 b 404 660 747 494 624 660 z m 406 39 b 167 325 254 39 167 189 b 400 601 167 460 239 601 b 640 315 554 601 640 450 b 406 39 640 176 563 39 z "},"ó":{"ha":810,"x_min":0,"x_max":0,"o":"m 404 660 b 63 322 190 660 63 504 b 407 -15 63 153 172 -15 b 747 315 635 -15 747 146 b 404 660 747 494 624 660 z m 406 39 b 167 325 254 39 167 189 b 400 601 167 460 239 601 b 640 315 554 601 640 450 b 406 39 640 176 563 39 z m 310 763 l 590 869 b 596 896 594 879 596 889 b 546 944 596 922 578 943 l 296 804 l 292 794 l 300 767 z "},"ô":{"ha":810,"x_min":0,"x_max":0,"o":"m 404 660 b 63 322 190 660 63 504 b 407 -15 63 153 172 -15 b 747 315 635 -15 747 146 b 404 660 747 494 624 660 z m 406 39 b 167 325 254 39 167 189 b 400 601 167 460 239 601 b 640 315 554 601 640 450 b 406 39 640 176 563 39 z m 410 935 l 256 797 l 251 788 l 260 761 l 271 757 l 414 842 l 558 757 l 569 761 l 576 788 l 572 797 l 419 935 z "},"ö":{"ha":810,"x_min":0,"x_max":0,"o":"m 404 660 b 63 322 190 660 63 504 b 407 -15 63 153 172 -15 b 747 315 635 -15 747 146 b 404 660 747 494 624 660 z m 406 39 b 167 325 254 39 167 189 b 400 601 167 460 239 601 b 640 315 554 601 640 450 b 406 39 640 176 563 39 z m 251 876 b 308 815 251 842 276 815 b 367 876 339 815 367 842 b 308 939 367 910 339 939 b 251 876 276 939 251 910 z m 442 876 b 499 815 442 842 467 815 b 557 876 529 815 557 842 b 499 939 557 910 529 939 b 442 876 467 939 442 910 z "},"œ":{"ha":1301,"x_min":0,"x_max":0,"o":"m 404 660 b 63 322 190 660 63 504 b 407 -15 63 153 172 -15 b 692 124 543 -15 638 40 b 968 -15 750 38 847 -15 b 1199 54 1068 -15 1154 19 l 1211 69 l 1211 94 l 1197 103 b 1015 61 1142 71 1072 61 b 742 325 819 61 742 185 b 743 361 742 336 742 349 l 908 361 b 1217 364 1008 361 1117 364 l 1239 374 l 1249 407 b 961 660 1215 621 1057 660 b 689 513 846 660 747 604 b 404 660 632 600 535 660 z m 406 39 b 167 325 254 39 167 189 b 400 601 167 460 239 601 b 640 315 554 601 640 450 b 406 39 640 176 563 39 z m 963 597 b 1125 485 1047 597 1104 554 b 1131 456 1128 476 1131 467 b 1100 426 1131 440 1124 428 b 806 418 997 421 903 418 l 751 418 b 963 597 771 515 843 597 z "},"ò":{"ha":810,"x_min":0,"x_max":0,"o":"m 404 660 b 63 322 190 660 63 504 b 407 -15 63 153 172 -15 b 747 315 635 -15 747 146 b 404 660 747 494 624 660 z m 406 39 b 167 325 254 39 167 189 b 400 601 167 460 239 601 b 640 315 554 601 640 450 b 406 39 640 176 563 39 z m 499 767 l 507 794 l 503 804 l 251 944 b 203 896 221 943 203 922 b 208 869 203 889 204 879 l 489 763 z "},"½":{"ha":965,"x_min":0,"x_max":0,"o":"m 82 26 l 188 26 l 193 32 b 433 386 269 156 332 246 l 600 615 b 846 929 667 708 746 815 l 847 935 l 742 935 l 735 929 b 524 615 669 815 592 708 l 356 386 b 82 32 256 250 189 156 z m 82 818 l 175 842 b 178 703 178 806 178 793 l 178 610 b 175 483 178 533 178 513 b 156 443 172 461 163 450 b 101 431 144 435 118 431 l 97 413 b 183 415 113 414 167 415 l 231 415 b 301 413 246 415 286 414 l 297 431 b 260 443 281 431 269 436 b 239 483 250 450 240 461 b 236 629 236 522 236 536 l 236 706 b 242 917 236 796 236 858 l 222 924 l 217 924 b 85 839 175 885 133 863 l 82 833 z m 592 340 l 624 340 b 735 444 631 411 669 444 b 822 367 803 444 822 407 b 571 19 822 275 642 108 l 571 3 l 579 -6 b 657 -1 606 -4 635 -1 l 731 -1 b 878 -6 757 -1 864 -6 l 883 1 l 897 113 l 878 113 b 724 47 858 50 846 47 l 679 47 b 886 368 679 92 886 238 b 739 497 886 447 843 497 b 585 414 657 497 608 457 z "},"¼":{"ha":929,"x_min":0,"x_max":0,"o":"m 78 26 l 183 26 l 189 32 b 429 386 265 156 328 246 l 596 615 b 842 929 663 708 739 815 l 843 935 l 738 935 l 731 929 b 519 615 665 815 588 708 l 351 386 b 78 32 250 249 185 156 z m 83 818 l 176 842 b 179 703 179 806 179 793 l 179 610 b 157 443 179 476 178 464 b 103 431 146 435 119 431 l 99 413 b 185 415 114 414 168 415 l 232 415 b 303 413 247 415 288 414 l 299 431 b 238 629 239 431 238 465 l 238 706 b 242 917 238 796 238 858 l 224 924 l 218 924 b 86 839 176 885 133 863 l 83 833 z m 544 157 l 739 157 b 665 6 739 43 739 6 l 660 -11 b 744 -8 674 -11 729 -8 l 797 -8 b 872 -11 810 -8 858 -11 l 869 6 b 800 157 801 6 800 40 l 839 157 l 850 200 l 800 200 b 806 490 800 432 803 461 l 797 497 l 715 486 l 529 182 l 538 161 z m 736 435 b 739 200 738 397 739 338 l 599 200 z "},"¹":{"ha":365,"x_min":0,"x_max":0,"o":"m 68 818 l 160 842 b 163 703 163 806 163 793 l 163 610 b 160 483 163 533 163 513 b 140 443 157 461 149 450 b 86 431 129 435 103 431 l 82 413 b 168 415 97 414 151 415 l 215 415 b 300 413 231 415 283 414 l 296 431 b 244 443 279 431 254 436 b 224 483 235 450 225 461 b 221 629 221 522 221 536 l 221 706 b 226 917 221 796 221 858 l 207 924 l 201 924 b 69 839 160 885 118 863 l 68 833 z "},"ª":{"ha":475,"x_min":0,"x_max":0,"o":"m 283 521 b 344 522 300 521 325 522 b 411 519 369 522 392 521 l 408 544 b 351 588 378 544 351 546 b 354 788 351 654 354 692 b 235 914 354 869 314 914 b 99 878 175 914 110 890 l 96 872 l 103 808 l 125 808 l 128 813 b 218 869 133 864 189 869 b 292 756 263 869 289 856 b 58 626 243 756 58 750 b 171 513 58 564 103 513 b 285 592 218 513 257 551 b 278 528 283 571 282 543 z m 278 618 b 186 567 261 593 225 567 b 124 632 151 567 124 586 b 292 717 124 708 200 717 l 288 642 b 278 618 288 633 282 624 z "},"º":{"ha":500,"x_min":0,"x_max":0,"o":"m 249 914 b 57 713 129 914 57 822 b 250 513 57 611 118 513 b 443 708 379 513 443 607 b 249 914 443 817 374 914 z m 250 554 b 117 714 167 554 117 633 b 246 868 117 793 158 868 b 381 708 332 868 381 788 b 250 554 381 628 336 554 z "},"ø":{"ha":810,"x_min":0,"x_max":0,"o":"m 404 660 b 63 322 190 660 63 504 b 157 78 63 232 92 143 l 71 -21 l 68 -26 l 161 -26 l 169 -21 l 215 33 b 407 -15 265 3 329 -15 b 747 315 635 -15 747 146 b 661 550 747 403 717 488 l 750 653 l 753 657 l 660 657 l 651 653 l 606 600 b 404 660 553 638 485 660 z m 167 325 b 400 601 167 460 239 601 b 553 538 463 601 514 576 l 217 147 b 167 325 183 200 167 264 z m 406 39 b 265 92 350 39 303 58 l 597 476 b 640 315 625 428 640 369 b 406 39 640 176 563 39 z "},"õ":{"ha":810,"x_min":0,"x_max":0,"o":"m 404 660 b 63 322 190 660 63 504 b 407 -15 63 153 172 -15 b 747 315 635 -15 747 146 b 404 660 747 494 624 660 z m 406 39 b 167 325 254 39 167 189 b 400 601 167 460 239 601 b 640 315 554 601 640 450 b 406 39 640 176 563 39 z m 632 928 l 615 939 b 525 903 592 906 556 903 b 276 915 444 903 324 915 b 150 810 197 915 150 838 l 169 799 b 246 833 186 821 199 833 b 510 821 303 833 471 821 b 632 928 597 821 632 917 z "},"p":{"ha":829,"x_min":0,"x_max":0,"o":"m 31 608 l 36 603 b 114 579 65 603 96 601 b 132 536 119 574 131 556 b 136 285 135 476 136 432 l 136 -39 b 132 -249 136 -162 135 -201 b 111 -315 129 -285 125 -304 b 35 -332 96 -331 64 -332 l 29 -336 l 28 -357 l 29 -361 b 172 -357 56 -361 146 -357 l 192 -357 b 333 -361 218 -357 307 -361 l 336 -357 l 333 -337 l 326 -332 b 254 -315 299 -332 269 -329 b 233 -249 240 -304 238 -286 b 228 -7 231 -185 228 -157 l 228 121 b 460 -15 285 22 369 -15 b 764 331 590 -15 764 79 b 458 660 764 500 669 660 b 232 533 364 660 285 608 b 240 632 232 561 233 618 l 232 644 l 183 638 b 61 632 149 632 92 632 l 36 632 l 31 628 z m 658 328 b 449 61 658 194 594 61 b 228 249 303 61 238 190 l 228 401 b 451 581 232 461 313 581 b 658 328 593 581 658 454 z "},"¶":{"ha":746,"x_min":0,"x_max":0,"o":"m 239 -179 b 394 -172 265 -176 368 -172 l 514 -172 b 669 -179 540 -172 643 -176 l 672 -174 l 668 -149 l 661 -144 b 588 -131 639 -144 604 -143 b 553 -50 572 -121 558 -97 b 549 293 550 -22 549 183 l 549 654 b 553 788 549 690 549 742 b 588 867 558 840 572 854 b 661 881 603 876 615 881 l 668 886 l 672 911 l 669 917 b 542 908 643 915 581 908 l 399 908 b 260 910 358 908 288 910 b 50 685 143 910 50 807 b 358 392 50 443 228 392 l 358 246 b 356 -50 358 169 357 -22 b 321 -129 351 -103 332 -121 b 247 -144 304 -140 293 -144 l 240 -149 l 236 -174 z m 400 -114 b 417 200 415 11 417 65 l 417 510 b 400 850 417 601 417 735 l 403 856 l 513 856 l 515 850 b 497 510 497 735 497 601 l 497 200 b 515 -114 497 65 499 11 l 513 -119 l 403 -119 z "},"(":{"ha":393,"x_min":0,"x_max":0,"o":"m 336 1071 b 56 454 160 910 56 690 b 336 -162 56 218 160 -4 l 357 -147 l 357 -140 b 167 454 179 82 167 303 b 194 726 167 525 169 625 b 357 1049 224 846 281 953 l 357 1056 z "},")":{"ha":393,"x_min":0,"x_max":0,"o":"m 36 1056 l 36 1049 b 197 726 113 951 168 846 b 225 454 222 624 225 525 b 36 -140 225 304 213 82 l 36 -147 l 57 -162 b 338 454 232 -6 338 219 b 57 1071 338 689 233 911 z "},"%":{"ha":1083,"x_min":0,"x_max":0,"o":"m 168 26 l 274 26 l 281 32 b 521 386 356 156 419 246 l 688 615 b 932 929 754 707 831 817 l 933 935 l 828 935 l 821 929 b 610 615 757 814 678 710 l 443 386 b 169 32 343 247 274 156 z m 825 496 b 625 236 700 496 625 381 b 821 -15 625 100 692 -15 b 1028 242 956 -15 1028 108 b 825 496 1028 378 954 496 z m 825 38 b 693 242 749 38 693 115 b 822 443 693 357 739 443 b 960 242 907 443 960 356 b 825 38 960 129 911 38 z m 260 924 b 58 664 133 924 58 808 b 256 413 58 528 126 413 b 461 669 390 413 461 536 b 260 924 461 806 388 924 z m 260 465 b 126 669 182 465 126 543 b 257 871 126 785 172 871 b 393 669 340 871 393 783 b 260 465 393 557 344 465 z "},".":{"ha":301,"x_min":0,"x_max":0,"o":"m 86 49 b 150 -15 86 14 114 -15 b 217 49 185 -15 217 14 b 150 115 217 83 185 115 b 86 49 114 115 86 83 z "},"·":{"ha":315,"x_min":0,"x_max":0,"o":"m 93 338 b 158 274 93 303 122 274 b 224 338 192 274 224 303 b 158 404 224 372 192 404 b 93 338 122 404 93 372 z "},"‰":{"ha":1572,"x_min":0,"x_max":0,"o":"m 172 26 l 278 26 l 285 32 b 525 386 360 156 424 246 l 692 615 b 936 929 760 708 835 817 l 938 935 l 832 935 l 825 929 b 614 615 761 814 682 710 l 447 386 b 174 32 347 247 278 156 z m 829 496 b 629 236 704 496 629 381 b 825 -15 629 100 696 -15 b 1032 242 960 -15 1032 108 b 829 496 1032 378 958 496 z m 829 38 b 697 242 753 38 697 115 b 826 443 697 357 743 443 b 964 242 911 443 964 356 b 829 38 964 129 915 38 z m 264 924 b 63 664 138 924 63 808 b 260 413 63 528 131 413 b 465 669 394 413 465 536 b 264 924 465 806 392 924 z m 264 465 b 131 669 186 465 131 543 b 261 871 131 785 176 871 b 397 669 344 871 397 783 b 264 465 397 557 349 465 z m 1318 496 b 1118 236 1193 496 1118 381 b 1314 -15 1118 100 1185 -15 b 1519 242 1449 -15 1519 108 b 1318 496 1519 378 1446 496 z m 1318 38 b 1186 242 1242 38 1186 115 b 1315 443 1186 357 1231 443 b 1453 242 1400 443 1453 356 b 1318 38 1453 129 1404 38 z "},"+":{"ha":671,"x_min":0,"x_max":0,"o":"m 371 593 l 299 593 l 299 368 l 74 368 l 61 296 l 299 296 l 299 57 l 371 57 l 371 296 l 596 296 l 610 368 l 371 368 z "},"±":{"ha":663,"x_min":0,"x_max":0,"o":"m 367 632 l 294 632 l 294 488 l 122 488 l 110 414 l 294 414 l 294 254 l 367 254 l 367 414 l 539 414 l 553 488 l 367 488 z m 122 171 l 110 97 l 539 97 l 553 171 z "},"q":{"ha":829,"x_min":0,"x_max":0,"o":"m 800 -357 l 797 -337 l 790 -332 b 718 -315 763 -332 733 -329 b 697 -249 704 -304 701 -286 b 692 -7 694 -185 692 -157 l 692 286 b 697 536 692 439 693 468 b 714 579 699 556 708 574 b 792 603 733 601 763 603 l 797 608 l 797 628 l 792 632 l 767 632 b 646 638 736 632 679 632 l 597 644 l 589 632 b 597 536 594 618 597 564 b 368 660 539 625 454 660 b 65 314 238 660 65 565 b 369 -15 65 144 158 -15 b 600 121 468 -15 547 40 l 600 -39 b 596 -249 600 -162 600 -201 b 575 -315 593 -285 589 -304 b 499 -332 560 -331 528 -332 l 493 -336 l 492 -357 l 493 -361 b 636 -357 519 -361 610 -357 l 656 -357 b 797 -361 682 -357 771 -361 z m 171 317 b 381 583 171 450 233 583 b 600 396 525 583 592 454 l 600 243 b 378 64 596 183 517 64 b 171 317 235 64 171 190 z "},"?":{"ha":593,"x_min":0,"x_max":0,"o":"m 308 325 b 513 731 315 425 513 560 b 285 953 513 910 364 953 b 64 876 222 953 97 929 l 61 864 l 78 735 l 103 735 l 106 739 b 281 894 117 822 182 894 b 419 754 343 894 419 850 b 233 347 419 593 233 496 b 238 213 233 321 236 260 l 246 207 l 294 229 l 303 239 z m 206 50 b 269 -15 206 15 235 -15 b 336 50 304 -15 336 15 b 269 115 336 86 304 115 b 206 50 235 115 206 86 z "},"¿":{"ha":596,"x_min":0,"x_max":0,"o":"m 304 319 b 100 -86 299 219 100 85 b 328 -308 100 -265 249 -308 b 549 -232 390 -308 515 -285 l 551 -219 l 535 -90 l 511 -90 l 507 -94 b 332 -251 496 -178 432 -251 b 194 -110 269 -251 194 -206 b 381 297 194 51 381 147 b 375 432 381 324 378 385 l 367 438 l 318 414 l 310 406 z m 276 596 b 342 529 276 561 306 529 b 408 596 376 529 408 561 b 342 660 408 631 376 660 b 276 596 306 660 276 631 z "},"\"":{"ha":400,"x_min":0,"x_max":0,"o":"m 139 731 l 142 736 b 158 1008 142 829 146 929 l 156 1014 l 63 1001 l 61 996 b 78 724 72 910 76 813 l 81 717 z m 324 731 l 326 736 b 343 1008 328 829 331 929 l 340 1014 l 249 1001 l 246 996 b 263 724 257 910 261 813 l 265 717 z "},"„":{"ha":521,"x_min":0,"x_max":0,"o":"m 88 -107 b 204 56 125 -92 204 -17 b 169 115 204 76 200 115 b 88 69 136 115 88 100 b 103 1 88 40 103 21 b 71 -93 103 -17 97 -51 l 71 -99 l 79 -107 z m 311 -107 b 429 56 350 -92 429 -17 b 393 115 429 76 424 115 b 311 69 361 115 311 100 b 328 1 311 40 328 21 b 294 -93 328 -17 322 -51 l 294 -99 l 304 -107 z "},"“":{"ha":424,"x_min":0,"x_max":0,"o":"m 143 806 l 151 814 l 151 819 b 119 914 124 861 119 896 b 135 983 119 935 135 954 b 53 1028 135 1014 86 1028 b 17 968 22 1028 17 990 b 135 806 17 896 96 822 z m 354 806 l 363 814 l 363 819 b 331 914 336 861 331 896 b 346 983 331 935 346 954 b 264 1028 346 1014 297 1028 b 229 968 233 1028 229 990 b 346 806 229 896 308 822 z "},"”":{"ha":444,"x_min":0,"x_max":0,"o":"m 258 1028 l 250 1019 l 250 1014 b 282 919 278 972 282 938 b 267 850 282 899 267 879 b 349 806 267 819 315 806 b 385 865 379 806 385 843 b 267 1028 385 938 306 1011 z m 47 1028 l 39 1019 l 39 1014 b 71 919 65 972 71 938 b 56 850 71 899 56 879 b 138 806 56 819 104 806 b 172 865 168 806 172 843 b 56 1028 172 938 93 1011 z "},"‘":{"ha":213,"x_min":0,"x_max":0,"o":"m 143 806 l 151 813 l 151 818 b 119 914 125 861 119 894 b 135 982 119 933 135 953 b 53 1028 135 1013 86 1028 b 18 968 22 1028 18 989 b 135 806 18 894 97 821 z "},"’":{"ha":213,"x_min":0,"x_max":0,"o":"m 78 806 b 194 968 115 821 194 894 b 160 1028 194 989 190 1028 b 78 982 126 1028 78 1013 b 93 914 78 953 93 933 b 61 818 93 894 88 861 l 61 813 l 69 806 z "},"‚":{"ha":296,"x_min":0,"x_max":0,"o":"m 88 -107 b 204 56 125 -92 204 -17 b 169 115 204 76 200 115 b 88 69 136 115 88 100 b 103 1 88 40 103 21 b 71 -93 103 -17 97 -51 l 71 -99 l 79 -107 z "},"'":{"ha":214,"x_min":0,"x_max":0,"o":"m 139 731 l 142 736 b 158 1008 142 829 146 929 l 156 1014 l 63 1001 l 61 996 b 78 724 72 910 76 813 l 81 717 z "},"r":{"ha":565,"x_min":0,"x_max":0,"o":"m 49 608 l 54 603 b 132 579 83 603 114 601 b 150 536 138 574 147 556 b 154 397 153 499 154 475 l 154 226 b 151 121 154 160 153 139 l 150 108 b 129 40 146 71 143 53 b 53 25 114 26 82 25 l 47 19 l 46 0 l 47 -6 b 192 0 74 -4 165 0 l 225 0 b 378 -6 251 0 351 -4 l 381 0 l 378 18 l 371 25 b 272 40 349 25 292 26 b 251 108 257 53 254 81 l 250 121 b 246 243 249 147 246 163 l 246 367 b 406 564 246 440 313 564 b 481 513 454 564 475 538 l 526 513 l 543 619 l 532 632 b 433 660 517 649 467 660 b 247 492 338 660 285 561 b 258 632 247 538 247 593 l 250 644 l 201 638 b 79 632 167 632 110 632 l 54 632 l 49 628 z "},"®":{"ha":1001,"x_min":0,"x_max":0,"o":"m 489 279 l 486 300 b 428 482 438 300 428 338 l 471 482 b 682 276 588 314 604 276 b 728 279 696 276 699 279 l 728 301 b 535 490 671 301 594 408 b 647 619 589 506 647 546 b 478 739 647 688 606 739 l 311 739 l 311 711 b 369 617 363 708 369 667 l 369 432 b 311 301 369 342 369 306 l 310 279 z m 453 524 b 428 543 440 524 428 524 l 428 697 l 492 697 b 586 615 550 697 586 665 b 490 524 586 558 556 524 z m 500 908 b 79 492 267 908 79 721 b 493 72 79 263 267 72 b 922 492 733 72 922 257 b 500 908 922 721 733 908 z m 500 868 b 874 492 706 868 874 699 b 494 113 874 279 707 113 b 128 492 294 113 128 283 b 500 868 128 699 294 868 z "},"˚":{"ha":228,"x_min":0,"x_max":0,"o":"m 114 949 b 0 847 42 949 0 899 b 115 747 0 800 38 747 b 228 844 189 747 228 796 b 114 949 228 896 186 949 z m 115 781 b 51 849 78 781 51 815 b 113 915 51 881 72 915 b 175 844 150 915 175 878 b 115 781 175 814 151 781 z "},"s":{"ha":610,"x_min":0,"x_max":0,"o":"m 276 390 b 171 494 193 410 171 451 b 301 607 171 551 208 607 b 463 494 357 607 463 581 l 468 490 l 497 490 l 513 597 l 508 610 b 303 660 468 632 389 660 b 72 474 174 660 72 597 b 224 310 72 408 103 340 l 357 276 b 454 161 453 251 454 194 b 289 42 454 110 415 42 b 126 185 183 42 126 97 l 122 190 l 90 190 l 69 47 l 72 35 b 293 -15 118 11 203 -15 b 556 189 456 -15 556 71 b 375 368 556 247 531 333 z "},"š":{"ha":610,"x_min":0,"x_max":0,"o":"m 276 390 b 171 494 193 410 171 451 b 301 607 171 551 208 607 b 463 494 357 607 463 581 l 468 490 l 497 490 l 513 597 l 508 610 b 303 660 468 632 389 660 b 72 474 174 660 72 597 b 224 310 72 408 103 340 l 357 276 b 454 161 453 251 454 194 b 289 42 454 110 415 42 b 126 185 183 42 126 97 l 122 190 l 90 190 l 69 47 l 72 35 b 293 -15 118 11 203 -15 b 556 189 456 -15 556 71 b 375 368 556 247 531 333 z m 317 757 l 471 894 l 474 903 l 467 931 l 456 935 l 311 849 l 168 935 l 157 931 l 150 903 l 153 894 l 307 757 z "},"§":{"ha":588,"x_min":0,"x_max":0,"o":"m 446 346 b 403 261 446 308 440 290 b 135 539 169 453 135 497 b 182 618 135 563 146 583 b 446 346 432 415 446 399 z m 404 821 l 464 933 l 461 944 b 349 983 426 972 390 983 b 124 757 226 983 124 871 b 153 654 124 722 132 686 b 69 468 92 581 69 538 b 214 256 69 403 90 350 b 382 76 294 196 382 142 b 290 -4 382 25 338 -4 b 192 74 250 -4 206 19 l 188 75 l 118 -18 l 119 -26 b 244 -83 164 -67 196 -83 b 446 147 357 -83 446 11 b 431 219 446 171 444 188 b 522 389 490 282 522 335 b 368 621 522 457 472 526 b 201 817 310 674 201 735 b 283 900 201 874 239 900 b 397 821 326 900 375 872 z "},";":{"ha":329,"x_min":0,"x_max":0,"o":"m 101 567 b 165 501 101 531 129 501 b 232 567 200 501 232 531 b 165 632 232 601 200 632 b 101 567 129 632 101 601 z m 108 -107 b 226 56 147 -92 226 -17 b 190 115 226 76 221 115 b 108 69 157 115 108 100 b 125 1 108 40 125 21 b 92 -93 125 -17 119 -51 l 92 -99 l 101 -107 z "},"/":{"ha":597,"x_min":0,"x_max":0,"o":"m 51 -79 l 160 -79 l 164 -74 b 300 346 193 50 249 208 l 394 601 b 544 969 429 694 483 854 l 543 975 l 435 975 l 431 969 b 314 601 406 854 349 696 l 221 346 b 51 -74 171 208 113 50 z "}," ":{"ha":351,"x_min":0,"x_max":0,"o":""},"£":{"ha":728,"x_min":0,"x_max":0,"o":"m 186 67 b 308 360 285 113 308 231 b 293 647 308 463 293 571 b 444 850 293 765 328 850 b 596 664 544 850 585 788 l 601 658 l 639 658 l 657 785 b 428 924 611 890 507 924 b 182 635 271 924 182 811 b 208 332 182 536 208 421 b 56 47 208 233 178 143 l 56 15 l 69 1 b 582 -61 240 1 500 -15 l 594 -47 l 646 146 l 608 146 l 601 138 b 458 40 581 67 571 40 b 189 63 432 40 354 50 z m 93 433 l 65 375 l 499 375 l 513 433 z "},"t":{"ha":456,"x_min":0,"x_max":0,"o":"m 421 581 l 421 626 l 414 632 l 233 632 b 249 850 233 706 239 800 l 236 856 b 165 840 224 849 179 842 l 146 839 l 136 831 b 143 632 140 767 143 696 l 43 632 l 38 626 l 38 581 l 43 574 l 143 574 b 135 124 142 335 135 158 b 264 -15 135 43 171 -15 b 400 33 304 -15 353 -6 l 418 67 l 406 76 b 300 47 379 61 332 47 b 231 138 263 47 231 65 b 233 574 231 158 233 333 l 414 574 z "},"þ":{"ha":811,"x_min":0,"x_max":0,"o":"m 13 992 l 18 986 b 96 963 47 986 78 983 b 114 919 101 956 113 939 b 118 668 117 860 118 815 l 118 -39 b 114 -249 118 -162 117 -201 b 93 -315 111 -285 107 -304 b 17 -332 78 -331 46 -332 l 11 -336 l 10 -357 l 11 -361 b 154 -357 38 -361 128 -357 l 174 -357 b 315 -361 200 -357 289 -361 l 318 -357 l 315 -337 l 308 -332 b 236 -315 281 -332 251 -329 b 215 -249 222 -304 219 -286 b 210 -7 213 -185 210 -157 l 210 121 b 442 -15 267 22 351 -15 b 746 331 572 -15 746 79 b 440 660 746 500 651 660 b 214 533 346 660 267 608 b 218 951 214 556 214 831 b 226 1015 219 982 222 1001 l 219 1028 l 165 1021 b 43 1015 131 1015 74 1015 l 18 1015 l 13 1010 z m 640 328 b 431 61 640 194 576 61 b 210 249 285 61 219 190 l 210 401 b 433 581 214 461 294 581 b 640 328 575 581 640 454 z "},"¾":{"ha":985,"x_min":0,"x_max":0,"o":"m 133 26 l 239 26 l 246 32 b 486 386 321 156 385 246 l 653 615 b 897 929 719 707 796 817 l 899 935 l 793 935 l 788 929 b 576 615 721 815 644 708 l 408 386 b 135 32 307 249 240 156 z m 601 157 l 794 157 b 721 6 794 43 794 6 l 715 -11 b 800 -8 731 -11 786 -8 l 853 -8 b 928 -11 867 -8 915 -11 l 925 6 b 857 157 858 6 857 40 l 896 157 l 906 200 l 857 200 b 863 490 857 432 860 461 l 853 497 l 771 486 l 585 182 l 594 161 z m 792 435 b 794 200 793 397 794 338 l 656 200 z m 106 560 l 76 560 l 69 499 b 217 413 101 446 146 413 b 394 576 326 413 394 499 b 296 694 394 629 364 679 b 369 801 347 721 369 761 b 221 924 369 865 314 924 b 83 842 135 924 103 881 l 90 781 l 121 781 b 119 794 119 786 119 790 b 215 881 119 854 168 881 b 310 799 263 881 310 854 b 221 703 310 753 278 704 l 213 674 l 233 674 b 336 568 301 674 336 621 b 217 458 336 494 276 458 b 106 560 164 458 114 485 z "},"³":{"ha":453,"x_min":0,"x_max":0,"o":"m 104 560 l 75 560 l 67 499 b 215 413 100 446 144 413 b 393 576 325 413 393 499 b 294 694 393 629 363 679 b 368 801 346 721 368 761 b 219 924 368 865 313 924 b 82 842 133 924 101 881 l 89 781 l 119 781 b 118 794 118 786 118 790 b 214 881 118 854 167 881 b 308 799 261 881 308 854 b 219 703 308 753 276 704 l 211 674 l 232 674 b 333 568 300 674 333 621 b 215 458 333 494 275 458 b 104 560 163 458 113 485 z "},"˜":{"ha":482,"x_min":0,"x_max":0,"o":"m 482 928 l 465 939 b 375 903 440 906 406 903 b 126 915 294 903 174 915 b 0 810 47 915 0 838 l 18 799 b 94 833 36 821 49 833 b 360 821 153 833 321 821 b 482 928 447 821 482 917 z "},"™":{"ha":1051,"x_min":0,"x_max":0,"o":"m 331 544 b 276 654 286 544 276 553 l 276 772 b 278 868 276 822 278 846 l 283 868 b 357 861 340 868 350 865 b 372 831 365 857 369 846 l 400 829 l 394 911 l 390 915 b 279 907 379 908 299 907 l 217 907 b 103 915 197 907 115 908 l 97 907 l 97 829 l 121 831 b 138 861 124 846 129 857 b 211 868 143 865 150 868 l 217 868 b 219 772 218 847 219 819 l 219 643 b 165 544 219 564 217 544 l 163 519 b 222 522 174 519 211 522 l 271 522 b 333 519 281 522 324 519 z m 957 544 b 939 543 950 544 944 543 b 903 654 918 543 910 553 l 894 772 b 892 835 892 804 892 822 b 914 886 892 879 893 886 l 939 886 l 939 911 b 875 907 928 911 886 907 l 832 907 b 813 911 825 907 817 908 b 692 596 796 844 699 607 b 585 911 657 669 582 911 b 546 907 576 908 551 907 l 519 907 b 454 911 507 907 465 911 l 457 885 b 479 886 465 885 471 886 b 501 858 493 886 501 882 b 497 772 501 842 500 824 l 489 643 b 436 544 483 564 471 544 l 432 519 b 492 522 442 519 481 522 l 514 522 b 569 519 525 522 558 519 l 565 544 b 528 592 542 544 528 544 b 532 654 528 601 529 610 l 539 772 b 546 847 542 817 546 833 l 656 531 l 711 531 b 836 849 743 607 818 810 l 850 643 b 854 583 851 617 854 596 b 813 544 854 551 836 544 l 810 519 b 874 522 819 519 863 522 l 897 522 b 961 519 908 522 950 519 z "},"²":{"ha":475,"x_min":0,"x_max":0,"o":"m 96 767 l 128 767 b 238 871 133 838 172 871 b 325 793 307 871 325 833 b 75 446 325 701 144 535 l 75 429 l 82 421 b 160 425 108 422 138 425 l 235 425 b 381 421 261 425 368 421 l 388 428 l 400 539 l 381 539 b 228 474 363 476 349 474 l 182 474 b 390 794 182 518 390 664 b 242 924 390 874 346 924 b 88 842 160 924 111 883 z "},"u":{"ha":828,"x_min":0,"x_max":0,"o":"m 589 -4 b 685 0 618 -1 651 0 b 796 -6 722 0 763 -3 l 799 0 l 796 19 l 790 25 b 714 40 761 25 729 26 b 693 108 701 50 697 67 b 689 243 692 147 689 163 l 689 399 b 692 525 689 479 692 494 b 700 632 692 547 693 617 l 692 644 l 643 638 b 522 632 610 632 553 632 l 497 632 l 492 628 l 492 608 l 497 603 b 575 579 526 603 557 601 b 592 536 581 574 589 556 b 597 397 594 499 597 475 l 597 217 b 388 51 582 154 501 51 b 231 181 313 51 249 94 b 219 315 222 218 219 275 b 224 525 219 365 224 463 b 232 632 224 547 225 617 l 224 644 l 175 638 b 53 632 140 632 83 632 l 28 632 l 24 628 l 24 608 l 28 603 b 106 581 57 603 88 601 b 124 536 111 574 124 556 b 125 322 124 504 124 371 b 132 167 126 269 124 214 b 363 -15 157 28 257 -15 b 593 119 471 -15 544 42 b 581 10 589 79 586 33 z "},"ú":{"ha":828,"x_min":0,"x_max":0,"o":"m 276 763 l 557 869 b 561 896 560 879 561 889 b 513 944 561 922 544 943 l 263 804 l 258 794 l 265 767 z m 589 -4 b 685 0 618 -1 651 0 b 796 -6 722 0 763 -3 l 799 0 l 796 19 l 790 25 b 714 40 761 25 729 26 b 693 108 701 50 697 67 b 689 243 692 147 689 163 l 689 399 b 692 525 689 479 692 494 b 700 632 692 547 693 617 l 692 644 l 643 638 b 522 632 610 632 553 632 l 497 632 l 492 628 l 492 608 l 497 603 b 575 579 526 603 557 601 b 592 536 581 574 589 556 b 597 397 594 499 597 475 l 597 217 b 388 51 582 154 501 51 b 231 181 313 51 249 94 b 219 315 222 218 219 275 b 224 525 219 365 224 463 b 232 632 224 547 225 617 l 224 644 l 175 638 b 53 632 140 632 83 632 l 28 632 l 24 628 l 24 608 l 28 603 b 106 581 57 603 88 601 b 124 536 111 574 124 556 b 125 322 124 504 124 371 b 132 167 126 269 124 214 b 363 -15 157 28 257 -15 b 593 119 471 -15 544 42 b 581 10 589 79 586 33 z "},"û":{"ha":828,"x_min":0,"x_max":0,"o":"m 393 935 l 239 797 l 236 788 l 243 761 l 254 757 l 397 842 l 542 757 l 553 761 l 560 788 l 557 797 l 403 935 z m 589 -4 b 685 0 618 -1 651 0 b 796 -6 722 0 763 -3 l 799 0 l 796 19 l 790 25 b 714 40 761 25 729 26 b 693 108 701 50 697 67 b 689 243 692 147 689 163 l 689 399 b 692 525 689 479 692 494 b 700 632 692 547 693 617 l 692 644 l 643 638 b 522 632 610 632 553 632 l 497 632 l 492 628 l 492 608 l 497 603 b 575 579 526 603 557 601 b 592 536 581 574 589 556 b 597 397 594 499 597 475 l 597 217 b 388 51 582 154 501 51 b 231 181 313 51 249 94 b 219 315 222 218 219 275 b 224 525 219 365 224 463 b 232 632 224 547 225 617 l 224 644 l 175 638 b 53 632 140 632 83 632 l 28 632 l 24 628 l 24 608 l 28 603 b 106 581 57 603 88 601 b 124 536 111 574 124 556 b 125 322 124 504 124 371 b 132 167 126 269 124 214 b 363 -15 157 28 257 -15 b 593 119 471 -15 544 42 b 581 10 589 79 586 33 z "},"ü":{"ha":828,"x_min":0,"x_max":0,"o":"m 589 -4 b 685 0 618 -1 651 0 b 796 -6 722 0 763 -3 l 799 0 l 796 19 l 790 25 b 714 40 761 25 729 26 b 693 108 701 50 697 67 b 689 243 692 147 689 163 l 689 399 b 692 525 689 479 692 494 b 700 632 692 547 693 617 l 692 644 l 643 638 b 522 632 610 632 553 632 l 497 632 l 492 628 l 492 608 l 497 603 b 575 579 526 603 557 601 b 592 536 581 574 589 556 b 597 397 594 499 597 475 l 597 217 b 388 51 582 154 501 51 b 231 181 313 51 249 94 b 219 315 222 218 219 275 b 224 525 219 365 224 463 b 232 632 224 547 225 617 l 224 644 l 175 638 b 53 632 140 632 83 632 l 28 632 l 24 628 l 24 608 l 28 603 b 106 581 57 603 88 601 b 124 536 111 574 124 556 b 125 322 124 504 124 371 b 132 167 126 269 124 214 b 363 -15 157 28 257 -15 b 593 119 471 -15 544 42 b 581 10 589 79 586 33 z m 244 876 b 301 815 244 842 269 815 b 360 876 332 815 360 842 b 301 939 360 910 332 939 b 244 876 269 939 244 910 z m 435 876 b 492 815 435 842 460 815 b 550 876 522 815 550 842 b 492 939 550 910 522 939 b 435 876 460 939 435 910 z "},"ù":{"ha":828,"x_min":0,"x_max":0,"o":"m 501 767 l 508 794 l 504 804 l 254 944 b 206 896 222 943 206 922 b 211 869 206 889 207 879 l 490 763 z m 589 -4 b 685 0 618 -1 651 0 b 796 -6 722 0 763 -3 l 799 0 l 796 19 l 790 25 b 714 40 761 25 729 26 b 693 108 701 50 697 67 b 689 243 692 147 689 163 l 689 399 b 692 525 689 479 692 494 b 700 632 692 547 693 617 l 692 644 l 643 638 b 522 632 610 632 553 632 l 497 632 l 492 628 l 492 608 l 497 603 b 575 579 526 603 557 601 b 592 536 581 574 589 556 b 597 397 594 499 597 475 l 597 217 b 388 51 582 154 501 51 b 231 181 313 51 249 94 b 219 315 222 218 219 275 b 224 525 219 365 224 463 b 232 632 224 547 225 617 l 224 644 l 175 638 b 53 632 140 632 83 632 l 28 632 l 24 628 l 24 608 l 28 603 b 106 581 57 603 88 601 b 124 536 111 574 124 556 b 125 322 124 504 124 371 b 132 167 126 269 124 214 b 363 -15 157 28 257 -15 b 593 119 471 -15 544 42 b 581 10 589 79 586 33 z "},"_":{"ha":618,"x_min":0,"x_max":0,"o":"m 8 0 l 8 -72 l 610 -72 l 610 0 z "},"­":{"ha":654,"x_min":0,"x_max":0,"o":"m 106 368 l 93 296 l 549 296 l 563 368 z "},"v":{"ha":715,"x_min":0,"x_max":0,"o":"m 407 0 l 478 178 b 635 556 493 217 582 468 b 708 606 654 589 676 601 l 717 613 l 717 632 l 711 638 b 615 629 676 633 646 629 l 558 629 b 457 638 528 629 493 632 l 451 632 l 451 615 l 457 610 b 529 556 493 606 529 596 b 429 242 529 475 454 304 l 363 82 l 294 263 b 199 556 281 299 199 513 b 269 610 199 589 229 606 l 275 615 l 275 632 l 269 638 b 157 629 233 633 186 629 l 103 629 b 4 638 74 629 35 633 l -1 632 l -1 613 l 7 606 b 85 556 46 601 67 585 b 110 503 93 542 101 524 b 222 222 146 413 210 257 l 306 0 l 319 -7 z "},"w":{"ha":1138,"x_min":0,"x_max":0,"o":"m 744 -7 l 829 0 l 900 178 b 1057 556 917 217 1004 468 b 1132 606 1076 589 1099 601 l 1139 613 l 1139 632 l 1135 638 b 1040 629 1099 633 1071 629 l 983 629 b 882 638 953 629 919 632 l 876 632 l 876 615 l 882 610 b 954 556 919 606 954 596 b 854 242 954 475 879 304 l 788 82 l 719 263 b 624 556 707 297 624 513 b 685 610 624 589 646 606 l 690 615 l 690 632 l 685 638 b 586 629 650 632 615 629 l 532 629 b 446 638 503 629 476 633 l 440 632 l 440 613 l 449 606 b 528 521 507 597 518 556 b 429 242 513 432 451 296 l 363 82 l 294 263 b 199 556 282 297 199 513 b 269 610 199 589 229 606 l 275 615 l 275 632 l 269 638 b 157 629 233 633 186 629 l 103 629 b 4 638 74 629 35 633 l -1 632 l -1 613 l 7 606 b 85 556 46 601 67 585 b 110 503 93 542 101 524 b 222 222 146 413 211 253 l 306 0 l 319 -7 l 404 0 l 475 178 b 568 422 486 204 528 319 l 732 0 z "},"x":{"ha":729,"x_min":0,"x_max":0,"o":"m 243 569 b 311 610 243 600 274 607 l 317 615 l 317 632 l 311 638 b 204 629 275 633 233 629 l 150 629 b 46 638 121 629 76 633 l 40 632 l 40 613 l 49 606 b 140 556 92 601 118 583 b 313 328 213 465 268 388 b 143 97 243 226 174 138 b 28 26 103 46 86 36 l 19 19 l 19 0 l 25 -6 b 122 0 60 -1 92 0 l 179 0 b 267 -6 210 0 229 0 l 272 0 l 272 17 l 267 22 b 200 68 225 29 200 38 b 353 276 200 85 279 188 b 497 53 476 110 497 72 b 440 21 497 38 472 22 l 435 15 l 435 -1 l 440 -7 b 549 1 476 -3 519 1 l 603 1 b 707 -7 632 1 676 -3 l 713 -1 l 713 18 l 704 25 b 592 93 646 33 618 58 b 411 325 586 97 497 210 b 558 528 460 394 493 438 b 685 606 596 582 626 597 l 693 613 l 693 632 l 688 638 b 590 629 651 633 621 629 l 533 629 b 444 638 503 629 482 632 l 439 632 l 439 615 l 444 610 b 499 564 486 603 499 600 b 375 374 499 549 444 460 b 243 569 303 468 243 554 z "},"y":{"ha":714,"x_min":0,"x_max":0,"o":"m 57 -318 l 51 -325 l 54 -358 l 65 -361 b 115 -357 83 -361 97 -361 b 347 -161 213 -332 299 -282 l 483 178 b 640 556 499 217 589 468 b 707 606 660 589 674 601 l 714 613 l 714 632 l 708 638 b 615 629 674 633 646 629 l 558 629 b 457 638 528 629 493 632 l 451 632 l 451 615 l 457 610 b 529 556 493 606 529 596 b 429 242 529 475 454 304 l 364 82 l 294 263 b 199 556 281 297 199 513 b 269 610 199 589 229 606 l 275 615 l 275 632 l 269 638 b 157 629 233 633 186 629 l 103 629 b 4 638 74 629 35 633 l -1 632 l -1 613 l 7 606 b 85 556 46 601 67 585 b 110 503 93 542 101 524 b 222 222 144 414 208 257 l 318 -29 l 274 -142 b 196 -264 257 -185 231 -228 b 57 -318 146 -315 110 -318 z "},"ý":{"ha":714,"x_min":0,"x_max":0,"o":"m 57 -318 l 51 -325 l 54 -358 l 65 -361 b 115 -357 83 -361 97 -361 b 347 -161 213 -332 299 -282 l 483 178 b 640 556 499 217 589 468 b 707 606 660 589 674 601 l 714 613 l 714 632 l 708 638 b 615 629 674 633 646 629 l 558 629 b 457 638 528 629 493 632 l 451 632 l 451 615 l 457 610 b 529 556 493 606 529 596 b 429 242 529 475 454 304 l 364 82 l 294 263 b 199 556 281 297 199 513 b 269 610 199 589 229 606 l 275 615 l 275 632 l 269 638 b 157 629 233 633 186 629 l 103 629 b 4 638 74 629 35 633 l -1 632 l -1 613 l 7 606 b 85 556 46 601 67 585 b 110 503 93 542 101 524 b 222 222 144 414 208 257 l 318 -29 l 274 -142 b 196 -264 257 -185 231 -228 b 57 -318 146 -315 110 -318 z m 289 763 l 569 869 b 574 896 574 879 574 889 b 525 944 574 922 557 943 l 275 804 l 271 794 l 279 767 z "},"ÿ":{"ha":714,"x_min":0,"x_max":0,"o":"m 57 -318 l 51 -325 l 54 -358 l 65 -361 b 115 -357 83 -361 97 -361 b 347 -161 213 -332 299 -282 l 483 178 b 640 556 499 217 589 468 b 707 606 660 589 674 601 l 714 613 l 714 632 l 708 638 b 615 629 674 633 646 629 l 558 629 b 457 638 528 629 493 632 l 451 632 l 451 615 l 457 610 b 529 556 493 606 529 596 b 429 242 529 475 454 304 l 364 82 l 294 263 b 199 556 281 297 199 513 b 269 610 199 589 229 606 l 275 615 l 275 632 l 269 638 b 157 629 233 633 186 629 l 103 629 b 4 638 74 629 35 633 l -1 632 l -1 613 l 7 606 b 85 556 46 601 67 585 b 110 503 93 542 101 524 b 222 222 144 414 208 257 l 318 -29 l 274 -142 b 196 -264 257 -185 231 -228 b 57 -318 146 -315 110 -318 z m 204 876 b 261 815 204 842 229 815 b 319 876 292 815 319 842 b 261 939 319 910 292 939 b 204 876 229 939 204 910 z m 394 876 b 451 815 394 842 419 815 b 510 876 482 815 510 842 b 451 939 510 910 482 939 b 394 876 419 939 394 910 z "},"¥":{"ha":967,"x_min":0,"x_max":0,"o":"m 764 426 l 764 488 l 576 488 b 750 769 615 558 663 640 b 918 881 804 850 835 868 l 924 886 l 924 911 l 918 917 b 790 908 867 910 835 908 l 710 908 b 582 917 665 908 636 908 l 576 911 l 576 886 l 582 881 b 681 832 624 871 681 878 b 667 783 681 817 671 792 b 494 461 650 742 557 568 b 303 807 425 582 369 685 b 289 840 297 815 289 831 b 306 864 289 847 296 857 b 388 881 322 875 350 879 l 393 886 l 393 911 l 388 917 b 232 906 336 911 275 906 l 174 906 b 50 917 132 906 94 911 l 43 911 l 43 886 l 54 881 b 140 854 92 876 119 871 b 185 801 153 843 172 821 b 379 488 250 703 324 582 l 194 488 l 194 426 l 414 426 b 431 353 421 408 429 388 l 194 353 l 194 292 l 431 292 b 426 121 431 183 429 149 b 392 42 422 69 407 54 b 318 28 376 29 347 28 l 311 22 l 308 -3 l 310 -8 b 467 0 336 -7 440 0 l 493 0 b 649 -8 519 0 622 -7 l 651 -3 l 647 22 l 640 28 b 567 42 611 28 582 29 b 532 121 551 54 536 69 b 528 292 529 160 528 186 l 764 292 l 764 353 l 528 353 b 542 426 528 388 535 413 z "},"z":{"ha":678,"x_min":0,"x_max":0,"o":"m 79 479 l 103 479 l 108 485 b 281 581 122 556 136 581 l 406 581 l 415 571 b 54 25 415 514 133 103 l 54 6 l 64 -6 b 206 0 97 -3 178 0 l 250 0 b 590 -6 285 0 574 -6 l 597 8 l 619 174 l 589 174 l 585 168 b 314 61 549 68 536 61 l 247 61 l 240 71 b 601 607 240 107 531 535 l 606 629 l 597 640 b 517 632 575 635 533 632 l 454 632 b 85 640 419 632 249 632 l 81 632 l 69 486 z "},"ž":{"ha":678,"x_min":0,"x_max":0,"o":"m 79 479 l 103 479 l 108 485 b 281 581 122 556 136 581 l 406 581 l 415 571 b 54 25 415 514 133 103 l 54 6 l 64 -6 b 206 0 97 -3 178 0 l 250 0 b 590 -6 285 0 574 -6 l 597 8 l 619 174 l 589 174 l 585 168 b 314 61 549 68 536 61 l 247 61 l 240 71 b 601 607 240 107 531 535 l 606 629 l 597 640 b 517 632 575 635 533 632 l 454 632 b 85 640 419 632 249 632 l 81 632 l 69 486 z m 340 757 l 493 894 l 497 903 l 489 931 l 479 935 l 335 849 l 190 935 l 181 931 l 172 903 l 176 894 l 329 757 z "}}}
